<?xml version="1.0" encoding="iso-8859-1"?>
<!-- Generator: Adobe Illustrator 16.0.0, SVG Export Plug-In . SVG Version: 6.00 Build 0)  -->
<!DOCTYPE svg PUBLIC "-//W3C//DTD SVG 1.1//EN" "http://www.w3.org/Graphics/SVG/1.1/DTD/svg11.dtd">
<svg version="1.1" id="Capa_1" xmlns="http://www.w3.org/2000/svg" xmlns:xlink="http://www.w3.org/1999/xlink" x="0px" y="0px"
	 width="47px" height="47px" viewBox="0 0 47 47" style="enable-background:new 0 0 47 47;" xml:space="preserve">
<g>
	<g>
		<path d="M8.972,10.279L6.093,7.667c-0.97,1.069-1.847,2.235-2.605,3.463l3.309,2.042C7.429,12.146,8.161,11.172,8.972,10.279z"/>
		<path d="M21.629,3.93l-0.367-3.871c-1.442,0.137-2.874,0.409-4.26,0.805l1.073,3.737C19.23,4.271,20.426,4.044,21.629,3.93z"/>
		<path d="M14.709,5.917l-1.746-3.473c-1.288,0.646-2.524,1.418-3.677,2.295l2.355,3.094C12.602,7.102,13.635,6.458,14.709,5.917z"
			/>
		<path d="M5.19,16.412l-3.628-1.396c-0.519,1.348-0.915,2.753-1.176,4.174l3.825,0.7C4.428,18.707,4.757,17.536,5.19,16.412z"/>
		<path d="M3.889,23.496L0,23.504c0.003,1.449,0.139,2.899,0.404,4.313l3.822-0.719C4.004,25.92,3.89,24.708,3.889,23.496z"/>
		<path d="M43.436,11.004c-0.766-1.223-1.649-2.383-2.625-3.445l-2.863,2.63c0.814,0.887,1.554,1.856,2.193,2.879L43.436,11.004z"/>
		<path d="M42.768,19.771l3.819-0.729c-0.271-1.422-0.676-2.824-1.202-4.165l-3.619,1.42C42.205,17.415,42.542,18.583,42.768,19.771
			z"/>
		<path d="M40.184,33.772l3.303,2.047c0.764-1.229,1.414-2.534,1.936-3.881l-3.626-1.403C41.361,31.658,40.818,32.746,40.184,33.772
			z"/>
		<path d="M29.855,0.824c-1.389-0.389-2.824-0.652-4.266-0.778l-0.342,3.872c1.202,0.107,2.398,0.325,3.557,0.65L29.855,0.824z"/>
		<path d="M33.906,2.378l-1.725,3.485c1.08,0.533,2.116,1.171,3.08,1.896l2.336-3.11C36.439,3.781,35.197,3.018,33.906,2.378z"/>
		<path d="M43.111,23.454c0,1.21-0.109,2.422-0.328,3.604l3.822,0.709C46.868,26.353,47,24.901,47,23.453v-0.091L43.111,23.454z"/>
		<path d="M28.884,42.319l1.067,3.738c1.388-0.396,2.748-0.926,4.042-1.57l-1.739-3.479C31.177,41.548,30.043,41.987,28.884,42.319z
			"/>
		<path d="M35.328,39.101l2.347,3.099c1.152-0.873,2.228-1.855,3.2-2.923L38,36.66C37.189,37.551,36.291,38.371,35.328,39.101z"/>
		<path d="M13.05,44.508c1.295,0.644,2.658,1.169,4.047,1.562l1.058-3.739c-1.16-0.328-2.294-0.767-3.374-1.304L13.05,44.508z"/>
		<path d="M21.711,42.985l-0.352,3.871c0.705,0.064,1.424,0.098,2.141,0.098c0.732,0,1.469-0.034,2.189-0.102l-0.359-3.871
			C24.143,43.092,22.9,43.093,21.711,42.985z"/>
		<path d="M6.159,39.313c0.973,1.064,2.051,2.045,3.205,2.914l2.341-3.104c-0.963-0.727-1.865-1.545-2.677-2.436L6.159,39.313z"/>
		<path d="M5.221,30.575l-3.623,1.408c0.523,1.344,1.176,2.648,1.942,3.877l3.3-2.055C6.202,32.782,5.657,31.694,5.221,30.575z"/>
		<path d="M17.008,16.067v4.677H14v16.683h19V20.744h-3.012v-4.677c0-3.582-2.911-6.494-6.491-6.494
			C19.919,9.573,17.008,12.485,17.008,16.067z M20.258,16.067c0-1.792,1.454-3.25,3.24-3.25c1.789,0,3.244,1.458,3.244,3.25v4.677
			h-6.484V16.067z"/>
	</g>
</g>
<g>
</g>
<g>
</g>
<g>
</g>
<g>
</g>
<g>
</g>
<g>
</g>
<g>
</g>
<g>
</g>
<g>
</g>
<g>
</g>
<g>
</g>
<g>
</g>
<g>
</g>
<g>
</g>
<g>
</g>
</svg>
