<svg width="524" height="521" viewBox="0 0 524 521" fill="none" xmlns="http://www.w3.org/2000/svg">
<path d="M267.15 0.240875C267.15 0.240875 176.764 3.07684 116.456 78.4742C56.1496 153.87 51.7429 258.416 45.9469 343.048C40.1496 427.681 88.0069 492.732 160.426 502.593C232.844 512.453 254.162 447.798 336.638 412.781C419.115 377.765 446.212 380.91 496.984 306.71C547.758 232.508 516.723 116.336 429.906 55.3649C343.088 -5.6058 267.15 0.240875 267.15 0.240875Z" fill="#E4EDF7"/>
<g opacity="0.699997">
<g opacity="0.699997">
<path opacity="0.699997" d="M267.15 0.240875C267.15 0.240875 176.764 3.07684 116.456 78.4742C56.1496 153.87 51.7429 258.416 45.9469 343.048C40.1496 427.681 88.0069 492.732 160.426 502.593C232.844 512.453 254.162 447.798 336.638 412.781C419.115 377.765 446.212 380.91 496.984 306.71C547.758 232.508 516.723 116.336 429.906 55.3649C343.088 -5.6058 267.15 0.240875 267.15 0.240875Z" fill="white"/>
</g>
</g>
<path d="M235.667 28.6994V40.2554H282.777" stroke="#1A2E35" stroke-width="1.33333" stroke-miterlimit="10" stroke-linecap="round" stroke-linejoin="round"/>
<path d="M258.778 42.922V56.2554H229.445" stroke="#1A2E35" stroke-width="1.33333" stroke-miterlimit="10" stroke-linecap="round" stroke-linejoin="round"/>
<path d="M236.555 60.6993V71.366H274.778" stroke="#1A2E35" stroke-width="1.33333" stroke-miterlimit="10" stroke-linecap="round" stroke-linejoin="round"/>
<path d="M271.223 57.144H292.556" stroke="#1A2E35" stroke-width="1.33333" stroke-miterlimit="10" stroke-linecap="round" stroke-linejoin="round"/>
<path d="M288.111 38.4773V26.9213" stroke="#1A2E35" stroke-width="1.33333" stroke-miterlimit="10" stroke-linecap="round" stroke-linejoin="round"/>
<path d="M260.556 23.366V10.922" stroke="#1A2E35" stroke-width="1.33333" stroke-miterlimit="10" stroke-linecap="round" stroke-linejoin="round"/>
<path d="M276.556 25.144H304.111" stroke="#1A2E35" stroke-width="1.33333" stroke-miterlimit="10" stroke-linecap="round" stroke-linejoin="round"/>
<path d="M235.667 103.366V114.922H282.777" stroke="#1A2E35" stroke-width="1.33333" stroke-miterlimit="10" stroke-linecap="round" stroke-linejoin="round"/>
<path d="M258.778 117.589V130.922H229.445" stroke="#1A2E35" stroke-width="1.33333" stroke-miterlimit="10" stroke-linecap="round" stroke-linejoin="round"/>
<path d="M236.555 135.366V146.033H274.778" stroke="#1A2E35" stroke-width="1.33333" stroke-miterlimit="10" stroke-linecap="round" stroke-linejoin="round"/>
<path d="M271.223 131.811H292.556" stroke="#1A2E35" stroke-width="1.33333" stroke-miterlimit="10" stroke-linecap="round" stroke-linejoin="round"/>
<path d="M288.111 113.144V101.588" stroke="#1A2E35" stroke-width="1.33333" stroke-miterlimit="10" stroke-linecap="round" stroke-linejoin="round"/>
<path d="M260.556 98.0327V85.5887" stroke="#1A2E35" stroke-width="1.33333" stroke-miterlimit="10" stroke-linecap="round" stroke-linejoin="round"/>
<path d="M276.556 99.8105H304.111" stroke="#1A2E35" stroke-width="1.33333" stroke-miterlimit="10" stroke-linecap="round" stroke-linejoin="round"/>
<path d="M235.667 178.033V189.589H282.777" stroke="#1A2E35" stroke-width="1.33333" stroke-miterlimit="10" stroke-linecap="round" stroke-linejoin="round"/>
<path d="M258.778 192.255V205.589H229.445" stroke="#1A2E35" stroke-width="1.33333" stroke-miterlimit="10" stroke-linecap="round" stroke-linejoin="round"/>
<path d="M236.555 210.033V220.699H274.778" stroke="#1A2E35" stroke-width="1.33333" stroke-miterlimit="10" stroke-linecap="round" stroke-linejoin="round"/>
<path d="M271.223 206.477H292.556" stroke="#1A2E35" stroke-width="1.33333" stroke-miterlimit="10" stroke-linecap="round" stroke-linejoin="round"/>
<path d="M288.111 187.811V176.255" stroke="#1A2E35" stroke-width="1.33333" stroke-miterlimit="10" stroke-linecap="round" stroke-linejoin="round"/>
<path d="M260.556 172.699V160.255" stroke="#1A2E35" stroke-width="1.33333" stroke-miterlimit="10" stroke-linecap="round" stroke-linejoin="round"/>
<path d="M276.556 174.477H304.111" stroke="#1A2E35" stroke-width="1.33333" stroke-miterlimit="10" stroke-linecap="round" stroke-linejoin="round"/>
<path d="M235.667 252.699V264.255H282.777" stroke="#1A2E35" stroke-width="1.33333" stroke-miterlimit="10" stroke-linecap="round" stroke-linejoin="round"/>
<path d="M258.778 266.922V280.255H229.445" stroke="#1A2E35" stroke-width="1.33333" stroke-miterlimit="10" stroke-linecap="round" stroke-linejoin="round"/>
<path d="M236.555 284.699V295.366H274.778" stroke="#1A2E35" stroke-width="1.33333" stroke-miterlimit="10" stroke-linecap="round" stroke-linejoin="round"/>
<path d="M271.223 281.145H292.556" stroke="#1A2E35" stroke-width="1.33333" stroke-miterlimit="10" stroke-linecap="round" stroke-linejoin="round"/>
<path d="M288.111 262.478V250.922" stroke="#1A2E35" stroke-width="1.33333" stroke-miterlimit="10" stroke-linecap="round" stroke-linejoin="round"/>
<path d="M260.556 247.366V234.922" stroke="#1A2E35" stroke-width="1.33333" stroke-miterlimit="10" stroke-linecap="round" stroke-linejoin="round"/>
<path d="M276.556 249.144H304.111" stroke="#1A2E35" stroke-width="1.33333" stroke-miterlimit="10" stroke-linecap="round" stroke-linejoin="round"/>
<path d="M235.667 327.366V338.922H282.777" stroke="#1A2E35" stroke-width="1.33333" stroke-miterlimit="10" stroke-linecap="round" stroke-linejoin="round"/>
<path d="M258.778 341.589V354.922H229.445" stroke="#1A2E35" stroke-width="1.33333" stroke-miterlimit="10" stroke-linecap="round" stroke-linejoin="round"/>
<path d="M236.555 359.366V370.032H274.778" stroke="#1A2E35" stroke-width="1.33333" stroke-miterlimit="10" stroke-linecap="round" stroke-linejoin="round"/>
<path d="M271.223 355.811H292.556" stroke="#1A2E35" stroke-width="1.33333" stroke-miterlimit="10" stroke-linecap="round" stroke-linejoin="round"/>
<path d="M288.111 337.145V325.589" stroke="#1A2E35" stroke-width="1.33333" stroke-miterlimit="10" stroke-linecap="round" stroke-linejoin="round"/>
<path d="M260.556 322.032V309.588" stroke="#1A2E35" stroke-width="1.33333" stroke-miterlimit="10" stroke-linecap="round" stroke-linejoin="round"/>
<path d="M276.556 323.811H304.111" stroke="#1A2E35" stroke-width="1.33333" stroke-miterlimit="10" stroke-linecap="round" stroke-linejoin="round"/>
<path d="M235.667 402.033V413.589H282.777" stroke="#1A2E35" stroke-width="1.33333" stroke-miterlimit="10" stroke-linecap="round" stroke-linejoin="round"/>
<path d="M258.778 416.255V429.589H229.445" stroke="#1A2E35" stroke-width="1.33333" stroke-miterlimit="10" stroke-linecap="round" stroke-linejoin="round"/>
<path d="M236.555 434.033V444.699H274.778" stroke="#1A2E35" stroke-width="1.33333" stroke-miterlimit="10" stroke-linecap="round" stroke-linejoin="round"/>
<path d="M271.223 430.478H292.556" stroke="#1A2E35" stroke-width="1.33333" stroke-miterlimit="10" stroke-linecap="round" stroke-linejoin="round"/>
<path d="M288.111 411.811V400.255" stroke="#1A2E35" stroke-width="1.33333" stroke-miterlimit="10" stroke-linecap="round" stroke-linejoin="round"/>
<path d="M260.556 396.699V384.255" stroke="#1A2E35" stroke-width="1.33333" stroke-miterlimit="10" stroke-linecap="round" stroke-linejoin="round"/>
<path d="M276.556 398.478H304.111" stroke="#1A2E35" stroke-width="1.33333" stroke-miterlimit="10" stroke-linecap="round" stroke-linejoin="round"/>
<path d="M235.667 476.699V488.255H282.777" stroke="#1A2E35" stroke-width="1.33333" stroke-miterlimit="10" stroke-linecap="round" stroke-linejoin="round"/>
<path d="M258.778 490.922V504.255H229.445" stroke="#1A2E35" stroke-width="1.33333" stroke-miterlimit="10" stroke-linecap="round" stroke-linejoin="round"/>
<path d="M236.555 508.699V519.366H274.778" stroke="#1A2E35" stroke-width="1.33333" stroke-miterlimit="10" stroke-linecap="round" stroke-linejoin="round"/>
<path d="M271.223 505.145H292.556" stroke="#1A2E35" stroke-width="1.33333" stroke-miterlimit="10" stroke-linecap="round" stroke-linejoin="round"/>
<path d="M288.111 486.478V474.922" stroke="#1A2E35" stroke-width="1.33333" stroke-miterlimit="10" stroke-linecap="round" stroke-linejoin="round"/>
<path d="M260.556 471.366V458.922" stroke="#1A2E35" stroke-width="1.33333" stroke-miterlimit="10" stroke-linecap="round" stroke-linejoin="round"/>
<path d="M276.556 473.145H304.111" stroke="#1A2E35" stroke-width="1.33333" stroke-miterlimit="10" stroke-linecap="round" stroke-linejoin="round"/>
<path d="M417.693 83.8118C417.693 83.8118 436.059 187.992 504.375 220.441L495.835 387.812H510.353" stroke="#1A2E35" stroke-width="1.33333" stroke-miterlimit="10" stroke-linecap="round" stroke-linejoin="round"/>
<path d="M510.353 83.8119H417.693V386.103H510.353V83.8119Z" stroke="#1A2E35" stroke-width="1.33333" stroke-miterlimit="10" stroke-linecap="round" stroke-linejoin="round"/>
<path d="M504.375 220.441C504.375 220.441 460.251 175.146 456.555 114.553" stroke="#1A2E35" stroke-width="1.33333" stroke-miterlimit="10" stroke-linecap="round" stroke-linejoin="round"/>
<path d="M482.832 108.809C482.86 106.222 482.923 103.582 483.027 100.89" stroke="#1A2E35" stroke-width="1.33333" stroke-miterlimit="10" stroke-linecap="round" stroke-linejoin="round"/>
<path d="M506.936 208.486C506.936 208.486 484.325 179.446 482.889 117.798" stroke="#1A2E35" stroke-width="1.33333" stroke-miterlimit="10" stroke-linecap="round" stroke-linejoin="round"/>
<path d="M500.105 153.834L451.431 221.295" stroke="#1A2E35" stroke-width="1.33333" stroke-miterlimit="10" stroke-linecap="round" stroke-linejoin="round"/>
<path d="M506.082 130.778L457.409 198.238" stroke="#1A2E35" stroke-width="1.33333" stroke-miterlimit="10" stroke-linecap="round" stroke-linejoin="round"/>
<path d="M412.585 83.8119H319.925V386.103H412.585V83.8119Z" fill="#F4F5F7" stroke="#1A2E35" stroke-width="1.33333" stroke-miterlimit="10" stroke-linecap="round" stroke-linejoin="round"/>
<path d="M515.772 59.1346H311.652V84.8506H515.772V59.1346Z" fill="#1A2E35" stroke="#1A2E35" stroke-width="1.33333" stroke-miterlimit="10" stroke-linecap="round" stroke-linejoin="round"/>
<path d="M326.561 62.6888V82.8701" stroke="#6B6B6B" stroke-width="1.33333" stroke-miterlimit="10" stroke-linecap="round" stroke-linejoin="round"/>
<path d="M339.087 62.6888V82.8701" stroke="#6B6B6B" stroke-width="1.33333" stroke-miterlimit="10" stroke-linecap="round" stroke-linejoin="round"/>
<path d="M351.613 62.6888V82.8701" stroke="#6B6B6B" stroke-width="1.33333" stroke-miterlimit="10" stroke-linecap="round" stroke-linejoin="round"/>
<path d="M364.139 62.6888V82.8701" stroke="#6B6B6B" stroke-width="1.33333" stroke-miterlimit="10" stroke-linecap="round" stroke-linejoin="round"/>
<path d="M376.665 62.6888V82.8701" stroke="#6B6B6B" stroke-width="1.33333" stroke-miterlimit="10" stroke-linecap="round" stroke-linejoin="round"/>
<path d="M389.193 62.6888V82.8701" stroke="#6B6B6B" stroke-width="1.33333" stroke-miterlimit="10" stroke-linecap="round" stroke-linejoin="round"/>
<path d="M401.719 62.6888V82.8701" stroke="#6B6B6B" stroke-width="1.33333" stroke-miterlimit="10" stroke-linecap="round" stroke-linejoin="round"/>
<path d="M414.245 62.6888V82.8701" stroke="#6B6B6B" stroke-width="1.33333" stroke-miterlimit="10" stroke-linecap="round" stroke-linejoin="round"/>
<path d="M426.771 62.6888V82.8701" stroke="#6B6B6B" stroke-width="1.33333" stroke-miterlimit="10" stroke-linecap="round" stroke-linejoin="round"/>
<path d="M439.297 62.6888V82.8701" stroke="#6B6B6B" stroke-width="1.33333" stroke-miterlimit="10" stroke-linecap="round" stroke-linejoin="round"/>
<path d="M451.823 62.6888V82.8701" stroke="#6B6B6B" stroke-width="1.33333" stroke-miterlimit="10" stroke-linecap="round" stroke-linejoin="round"/>
<path d="M464.349 62.6888V82.8701" stroke="#6B6B6B" stroke-width="1.33333" stroke-miterlimit="10" stroke-linecap="round" stroke-linejoin="round"/>
<path d="M476.875 62.6888V82.8701" stroke="#6B6B6B" stroke-width="1.33333" stroke-miterlimit="10" stroke-linecap="round" stroke-linejoin="round"/>
<path d="M489.401 62.6888V82.8701" stroke="#6B6B6B" stroke-width="1.33333" stroke-miterlimit="10" stroke-linecap="round" stroke-linejoin="round"/>
<path d="M501.927 62.6888V82.8701" stroke="#6B6B6B" stroke-width="1.33333" stroke-miterlimit="10" stroke-linecap="round" stroke-linejoin="round"/>
<path d="M334.995 344.572C334.995 344.572 333.828 340.782 330.427 339.422C328.064 338.477 325.343 338.724 322.893 339.15C318.331 339.944 314.348 341.758 310.023 343.309C310.023 343.309 311.868 342.629 319.447 346.321C322.239 347.681 325.431 348.737 328.624 348.665C331.188 348.608 335.116 347.877 334.995 344.572Z" fill="#34A853"/>
<path d="M335.405 333.439C335.405 333.439 335.382 329.473 332.521 327.189C330.53 325.6 327.854 325.052 325.386 324.752C320.789 324.193 316.452 324.78 311.862 325.016C311.862 325.016 313.825 324.897 320.016 330.623C322.296 332.731 325.046 334.663 328.124 335.517C330.596 336.201 334.568 336.637 335.405 333.439Z" fill="#34A853"/>
<path d="M343.241 348.161C343.241 348.161 340.149 345.68 340.137 342.017C340.13 339.471 341.363 337.032 342.661 334.913C345.082 330.965 348.237 327.932 351.273 324.481C351.273 324.481 349.961 325.948 350.599 334.355C350.833 337.451 350.638 340.807 349.394 343.747C348.394 346.111 346.269 349.493 343.241 348.161Z" fill="#34A853"/>
<path d="M354.193 354.25C354.193 354.25 353.755 350.31 356.334 347.709C358.127 345.901 360.722 345.046 363.139 344.463C367.642 343.378 372.017 343.458 376.605 343.161C376.605 343.161 374.639 343.271 369.154 349.673C367.133 352.031 364.623 354.269 361.665 355.471C359.29 356.439 355.394 357.333 354.193 354.25Z" fill="#34A853"/>
<path d="M353.475 340.203C353.475 340.203 349.547 339.663 347.657 336.526C346.342 334.344 346.149 331.62 346.173 329.134C346.222 324.503 347.371 320.28 348.205 315.76C348.205 315.76 347.831 317.692 352.697 324.578C354.489 327.114 356.045 330.094 356.489 333.256C356.843 335.796 356.757 339.791 353.475 340.203Z" fill="#34A853"/>
<path d="M364.78 333.15C364.78 333.15 367.604 335.931 371.244 335.514C373.773 335.224 376.051 333.715 378.004 332.178C381.643 329.312 384.287 325.826 387.359 322.406C387.359 322.406 386.056 323.882 377.633 324.23C374.529 324.358 371.22 324.944 368.444 326.522C366.213 327.79 363.103 330.298 364.78 333.15Z" fill="#34A853"/>
<path d="M361.508 330.398C361.508 330.398 365.453 330.796 368.028 328.189C369.816 326.377 370.645 323.773 371.203 321.352C372.243 316.838 372.116 312.464 372.367 307.874C372.367 307.874 372.276 309.84 365.931 315.392C363.593 317.436 361.383 319.969 360.209 322.938C359.267 325.324 358.415 329.229 361.508 330.398Z" fill="#34A853"/>
<path d="M347.423 368.794L340.615 352.034L332.758 332.656" stroke="#1A2E35" stroke-width="1.33333" stroke-miterlimit="10" stroke-linecap="round" stroke-linejoin="round"/>
<path d="M348.995 365.914L355.803 342.607L363.136 328.203" stroke="#1A2E35" stroke-width="1.33333" stroke-miterlimit="10" stroke-linecap="round" stroke-linejoin="round"/>
<path d="M351.613 356.747L358.421 352.819" stroke="#1A2E35" stroke-width="1.33333" stroke-miterlimit="10" stroke-linecap="round" stroke-linejoin="round"/>
<path d="M355.803 342.607L352.399 335.012" stroke="#1A2E35" stroke-width="1.33333" stroke-miterlimit="10" stroke-linecap="round" stroke-linejoin="round"/>
<path d="M360.064 335.049L368.373 331.345" stroke="#1A2E35" stroke-width="1.33333" stroke-miterlimit="10" stroke-linecap="round" stroke-linejoin="round"/>
<path d="M341.925 355.176L344.805 343.653" stroke="#1A2E35" stroke-width="1.33333" stroke-miterlimit="10" stroke-linecap="round" stroke-linejoin="round"/>
<path d="M338.104 346.418L331.449 342.869" stroke="#1A2E35" stroke-width="1.33333" stroke-miterlimit="10" stroke-linecap="round" stroke-linejoin="round"/>
<path d="M354.219 377.175H341.938L339.304 363.295H356.852L354.219 377.175Z" fill="#1A2E35"/>
<path d="M354.219 377.175H341.938L339.304 363.295H356.852L354.219 377.175Z" stroke="#1A2E35" stroke-width="1.33333" stroke-miterlimit="10" stroke-linecap="round" stroke-linejoin="round"/>
<path d="M411.516 346.91C411.516 346.91 411.357 360.199 412.637 364.682C413.918 369.166 421.122 392.543 421.764 396.225C422.404 399.907 422.404 401.509 422.404 401.509C422.404 401.509 418.721 403.109 413.598 405.671C408.474 408.233 404.632 410.635 405.913 411.115C407.193 411.597 415.04 411.597 416.158 411.597C417.28 411.597 433.772 410.315 433.772 410.315C433.772 410.315 434.413 406.953 434.572 405.031C434.732 403.109 432.972 399.587 432.972 398.786C432.972 397.986 434.093 387.579 433.292 380.854C432.49 374.13 427.368 362.121 427.368 360.199V351.393L427.046 347.871L411.516 346.91Z" fill="white"/>
<path d="M411.516 346.91C411.516 346.91 411.357 360.199 412.637 364.682C413.918 369.166 421.122 392.543 421.764 396.225C422.404 399.907 422.404 401.509 422.404 401.509C422.404 401.509 418.721 403.109 413.598 405.671C408.474 408.233 404.632 410.635 405.913 411.115C407.193 411.597 415.04 411.597 416.158 411.597C417.28 411.597 433.772 410.315 433.772 410.315C433.772 410.315 434.413 406.953 434.572 405.031C434.732 403.109 432.972 399.587 432.972 398.786C432.972 397.986 434.093 387.579 433.292 380.854C432.49 374.13 427.368 362.121 427.368 360.199V351.393L427.046 347.871L411.516 346.91Z" stroke="#1A2E35" stroke-width="1.33333" stroke-miterlimit="10" stroke-linecap="round" stroke-linejoin="round"/>
<path d="M433.772 410.315C433.772 410.315 434.412 406.954 434.572 405.031C434.605 404.635 434.544 404.163 434.445 403.67C431.939 403.99 424.485 405.191 424.485 405.191C424.485 405.191 424.485 403.91 424.005 402.308C423.524 400.708 422.404 401.51 422.404 401.51C422.404 401.51 418.721 403.11 413.597 405.672C408.473 408.232 404.632 410.635 405.912 411.116C407.192 411.596 415.039 411.596 416.159 411.596C417.28 411.596 433.772 410.315 433.772 410.315Z" fill="white"/>
<path d="M433.772 410.315C433.772 410.315 434.412 406.954 434.572 405.031C434.605 404.635 434.544 404.163 434.445 403.67C431.939 403.99 424.485 405.191 424.485 405.191C424.485 405.191 424.485 403.91 424.005 402.308C423.524 400.708 422.404 401.51 422.404 401.51C422.404 401.51 418.721 403.11 413.597 405.672C408.473 408.232 404.632 410.635 405.912 411.116C407.192 411.596 415.039 411.596 416.159 411.596C417.28 411.596 433.772 410.315 433.772 410.315Z" stroke="#1A2E35" stroke-width="1.33333" stroke-miterlimit="10" stroke-linecap="round" stroke-linejoin="round"/>
<path d="M411.357 246.681C411.357 246.681 399.347 243.158 391.662 237.234C383.977 231.31 382.697 228.908 380.774 226.186C378.853 223.464 375.811 223.305 373.09 223.625C370.367 223.945 367.966 223.305 368.927 224.745C369.886 226.186 372.93 226.026 373.57 226.026C374.21 226.026 375.17 226.186 375.17 226.186L366.045 231.31C366.045 231.31 361.401 229.709 362.202 231.95C363.002 234.192 369.566 235.473 371.809 235.473C374.05 235.473 380.935 234.032 380.935 234.032C380.935 234.032 391.662 246.521 397.586 252.605C403.51 258.689 408.954 260.13 408.954 260.13L413.918 250.844L411.357 246.681Z" fill="white"/>
<path d="M411.357 246.681C411.357 246.681 399.347 243.158 391.662 237.234C383.977 231.31 382.697 228.908 380.774 226.186C378.853 223.464 375.811 223.305 373.09 223.625C370.367 223.945 367.966 223.305 368.927 224.745C369.886 226.186 372.93 226.026 373.57 226.026C374.21 226.026 375.17 226.186 375.17 226.186L366.045 231.31C366.045 231.31 361.401 229.709 362.202 231.95C363.002 234.192 369.566 235.473 371.809 235.473C374.05 235.473 380.935 234.032 380.935 234.032C380.935 234.032 391.662 246.521 397.586 252.605C403.51 258.689 408.954 260.13 408.954 260.13L413.918 250.844L411.357 246.681Z" stroke="#1A2E35" stroke-width="1.33333" stroke-miterlimit="10" stroke-linecap="round" stroke-linejoin="round"/>
<path d="M379.904 231.334C379.904 231.334 377.321 229.489 375.844 229.489C374.369 229.489 368.096 232.442 368.096 232.442" stroke="#1A2E35" stroke-width="1.33333" stroke-miterlimit="10" stroke-linecap="round" stroke-linejoin="round"/>
<path d="M422.083 351.714C422.083 351.714 422.457 357.638 423.418 363.883C424.379 370.127 431.21 394.624 431.21 398.146C431.21 401.67 431.05 403.11 431.05 403.11C431.05 403.11 428.489 405.672 424.486 407.272C420.483 408.874 414.398 410.956 414.398 412.236C414.398 413.518 417.119 413.518 420.962 413.518H444.499C444.499 413.518 445.941 413.036 445.941 409.675C445.941 406.312 443.219 402.63 443.219 401.83C443.219 401.028 445.619 387.419 445.619 382.456C445.619 377.492 441.778 367.566 440.977 362.762C440.175 357.959 440.817 350.594 440.817 350.594L421.923 349.794L422.083 351.714Z" fill="white"/>
<path d="M422.083 351.714C422.083 351.714 422.457 357.638 423.418 363.883C424.379 370.127 431.21 394.624 431.21 398.146C431.21 401.67 431.05 403.11 431.05 403.11C431.05 403.11 428.489 405.672 424.486 407.272C420.483 408.874 414.398 410.956 414.398 412.236C414.398 413.518 417.119 413.518 420.962 413.518H444.499C444.499 413.518 445.941 413.036 445.941 409.675C445.941 406.312 443.219 402.63 443.219 401.83C443.219 401.028 445.619 387.419 445.619 382.456C445.619 377.492 441.778 367.566 440.977 362.762C440.175 357.959 440.817 350.594 440.817 350.594L421.923 349.794L422.083 351.714Z" stroke="#1A2E35" stroke-width="1.33333" stroke-miterlimit="10" stroke-linecap="round" stroke-linejoin="round"/>
<path d="M445.94 409.674C445.94 408.55 445.627 407.397 445.221 406.321C444.933 406.424 444.652 406.524 444.339 406.633C440.656 407.913 435.372 407.432 435.372 407.432C435.372 407.432 433.612 406.793 432.331 404.87C431.049 402.949 430.248 404.39 430.248 404.39L429.599 404.336C428.457 405.213 426.704 406.385 424.485 407.272C420.483 408.873 414.399 410.956 414.399 412.236C414.399 413.517 417.12 413.517 420.963 413.517H444.499C444.499 413.517 445.94 413.036 445.94 409.674Z" fill="white"/>
<path d="M445.94 409.674C445.94 408.55 445.627 407.397 445.221 406.321C444.933 406.424 444.652 406.524 444.339 406.633C440.656 407.913 435.372 407.432 435.372 407.432C435.372 407.432 433.612 406.793 432.331 404.87C431.049 402.949 430.248 404.39 430.248 404.39L429.599 404.336C428.457 405.213 426.704 406.385 424.485 407.272C420.483 408.873 414.399 410.956 414.399 412.236C414.399 413.517 417.12 413.517 420.963 413.517H444.499C444.499 413.517 445.94 413.036 445.94 409.674Z" stroke="#1A2E35" stroke-width="1.33333" stroke-miterlimit="10" stroke-linecap="round" stroke-linejoin="round"/>
<path d="M404.471 316.169C404.471 316.169 402.069 341.147 401.909 344.029C401.75 346.911 401.27 347.871 401.27 347.871C401.27 347.871 411.997 349.793 416.959 349.793H421.923V318.251L404.471 316.169Z" fill="#FFCF00"/>
<path d="M404.471 316.169C404.471 316.169 402.069 341.147 401.909 344.029C401.75 346.911 401.27 347.871 401.27 347.871C401.27 347.871 411.997 349.793 416.959 349.793H421.923V318.251L404.471 316.169Z" stroke="#2F2F2F" stroke-width="1.33333" stroke-miterlimit="10" stroke-linecap="round" stroke-linejoin="round"/>
<path d="M412.637 319.371C412.637 319.371 412.957 344.83 412.477 347.391C411.997 349.954 411.835 351.554 411.835 351.554C411.835 351.554 417.921 354.597 428.809 355.718C439.695 356.838 452.986 352.675 452.986 352.675C452.986 352.675 450.103 336.985 450.103 332.021C450.103 327.058 450.263 316.17 450.263 316.17L412.317 316.33L412.637 319.371Z" fill="#FFCF00"/>
<path d="M412.637 319.371C412.637 319.371 412.957 344.83 412.477 347.391C411.997 349.954 411.835 351.554 411.835 351.554C411.835 351.554 417.921 354.597 428.809 355.718C439.695 356.838 452.986 352.675 452.986 352.675C452.986 352.675 450.103 336.985 450.103 332.021C450.103 327.058 450.263 316.17 450.263 316.17L412.317 316.33L412.637 319.371Z" stroke="#1A2E35" stroke-width="1.33333" stroke-miterlimit="10" stroke-linecap="round" stroke-linejoin="round"/>
<path d="M410.716 238.195C410.716 238.195 411.836 249.883 406.553 258.048C401.269 266.215 398.227 279.824 397.585 287.189C396.947 294.553 396.465 316.971 396.465 316.971C396.465 316.971 400.949 319.531 417.92 321.773C434.892 324.015 455.387 317.131 455.387 317.131C455.387 317.131 452.505 288.951 452.024 285.748C451.544 282.545 451.064 257.888 448.663 248.281C446.26 238.675 441.297 230.029 437.455 226.667C433.612 223.305 430.088 222.664 430.088 222.664L410.716 238.195Z" fill="#FF1778"/>
<path d="M410.716 238.195C410.716 238.195 411.836 249.883 406.553 258.048C401.269 266.215 398.227 279.824 397.585 287.189C396.947 294.553 396.465 316.971 396.465 316.971C396.465 316.971 400.949 319.531 417.92 321.773C434.892 324.015 455.387 317.131 455.387 317.131C455.387 317.131 452.505 288.951 452.024 285.748C451.544 282.545 451.064 257.888 448.663 248.281C446.26 238.675 441.297 230.029 437.455 226.667C433.612 223.305 430.088 222.664 430.088 222.664L410.716 238.195Z" stroke="#1A2E35" stroke-width="1.33333" stroke-miterlimit="10" stroke-linecap="round" stroke-linejoin="round"/>
<path d="M412.531 228.622L407.478 233.819L408.778 241.183L416.14 232.375L412.531 228.622Z" fill="#FA81A2"/>
<path d="M412.531 228.622L407.478 233.819L408.778 241.183L416.14 232.375L412.531 228.622Z" stroke="#1A2E35" stroke-width="1.33333" stroke-miterlimit="10" stroke-linecap="round" stroke-linejoin="round"/>
<path d="M403.436 190.072C403.436 190.072 398.381 198.734 398.525 200.322C398.671 201.91 399.681 202.777 399.248 203.933C398.815 205.088 394.34 208.264 395.061 209.852C395.783 211.44 398.381 212.74 398.381 212.74C398.381 212.74 399.969 223.136 401.269 224.29C402.569 225.445 406.179 224.724 406.179 224.724L412.82 231.798L428.413 220.248L424.949 213.75C424.949 213.75 429.424 206.098 429.135 200.612C428.847 195.125 425.092 189.061 419.317 186.606C413.543 184.152 406.033 184.008 403.436 190.072Z" fill="white"/>
<path d="M403.436 190.072C403.436 190.072 398.381 198.734 398.525 200.322C398.671 201.91 399.681 202.777 399.248 203.933C398.815 205.088 394.34 208.264 395.061 209.852C395.783 211.44 398.381 212.74 398.381 212.74C398.381 212.74 399.969 223.136 401.269 224.29C402.569 225.445 406.179 224.724 406.179 224.724L412.82 231.798L428.413 220.248L424.949 213.75C424.949 213.75 429.424 206.098 429.135 200.612C428.847 195.125 425.092 189.061 419.317 186.606C413.543 184.152 406.033 184.008 403.436 190.072Z" stroke="#1A2E35" stroke-width="1.33333" stroke-miterlimit="10" stroke-linecap="round" stroke-linejoin="round"/>
<path d="M424.948 213.75C424.948 213.75 429.424 206.098 429.136 200.611C428.846 195.125 425.092 189.061 419.317 186.606C414.258 184.457 407.872 184.079 404.618 188.093C405.906 187.341 409.054 185.931 411.954 188.05C415.708 190.794 414.698 193.537 412.098 195.414C409.5 197.29 406.756 198.013 408.2 199.457C409.644 200.901 412.244 202.489 411.954 204.221C411.665 205.954 411.086 207.253 412.82 207.109C414.553 206.965 415.274 204.654 416.285 204.221C417.297 203.787 420.328 204.654 419.752 208.119C419.173 211.585 415.708 212.885 415.708 212.885C415.708 212.885 416.574 215.627 418.884 215.917C420.536 216.122 423.434 214.634 424.958 213.767L424.948 213.75Z" fill="#4285F4"/>
<path d="M424.948 213.75C424.948 213.75 429.424 206.098 429.136 200.611C428.846 195.125 425.092 189.061 419.317 186.606C414.258 184.457 407.872 184.079 404.618 188.093C405.906 187.341 409.054 185.931 411.954 188.05C415.708 190.794 414.698 193.537 412.098 195.414C409.5 197.29 406.756 198.013 408.2 199.457C409.644 200.901 412.244 202.489 411.954 204.221C411.665 205.954 411.086 207.253 412.82 207.109C414.553 206.965 415.274 204.654 416.285 204.221C417.297 203.787 420.328 204.654 419.752 208.119C419.173 211.585 415.708 212.885 415.708 212.885C415.708 212.885 416.574 215.627 418.884 215.917C420.536 216.122 423.434 214.634 424.958 213.767L424.948 213.75Z" stroke="#1A2E35" stroke-width="1.33333" stroke-miterlimit="10" stroke-linecap="round" stroke-linejoin="round"/>
<path d="M408.922 232.665L413.11 241.183L432.313 222.269L428.27 216.638L408.922 232.665Z" fill="#FA81A2"/>
<path d="M408.922 232.665L413.11 241.183L432.313 222.269L428.27 216.638L408.922 232.665Z" stroke="#1A2E35" stroke-width="1.33333" stroke-miterlimit="10" stroke-linecap="round" stroke-linejoin="round"/>
<path d="M419.682 264.453C419.682 264.453 395.505 257.568 393.102 256.608C390.702 255.648 389.581 254.686 389.581 254.686C389.581 254.686 388.46 248.121 387.34 247.161C386.218 246.201 382.537 245.72 381.096 244.438C379.654 243.158 378.853 243.958 379.333 245.72C379.814 247.481 382.216 249.082 382.216 249.082L382.537 250.202C382.537 250.202 377.413 248.282 375.972 247.481C374.53 246.681 370.688 244.598 370.528 246.201C370.368 247.801 372.129 249.082 372.129 249.082C372.129 249.082 374.049 252.925 375.49 255.166C376.932 257.408 380.294 258.689 383.176 259.489C386.058 260.29 387.66 261.092 387.66 261.092C387.66 261.092 397.586 267.814 404.792 272.298C411.996 276.781 427.368 282.866 429.129 281.264C430.889 279.664 432.652 273.258 432.652 273.258L419.682 264.453Z" fill="white"/>
<path d="M419.682 264.453C419.682 264.453 395.505 257.568 393.102 256.608C390.702 255.648 389.581 254.686 389.581 254.686C389.581 254.686 388.46 248.121 387.34 247.161C386.218 246.201 382.537 245.72 381.096 244.438C379.654 243.158 378.853 243.958 379.333 245.72C379.814 247.481 382.216 249.082 382.216 249.082L382.537 250.202C382.537 250.202 377.413 248.282 375.972 247.481C374.53 246.681 370.688 244.598 370.528 246.201C370.368 247.801 372.129 249.082 372.129 249.082C372.129 249.082 374.049 252.925 375.49 255.166C376.932 257.408 380.294 258.689 383.176 259.489C386.058 260.29 387.66 261.092 387.66 261.092C387.66 261.092 397.586 267.814 404.792 272.298C411.996 276.781 427.368 282.866 429.129 281.264C430.889 279.664 432.652 273.258 432.652 273.258L419.682 264.453Z" stroke="#1A2E35" stroke-width="1.33333" stroke-miterlimit="10" stroke-linecap="round" stroke-linejoin="round"/>
<path d="M424.486 235.793C424.486 235.793 420.802 241.397 420.483 245.399C420.163 249.402 418.402 258.849 418.402 258.849C418.402 258.849 416.159 259.97 415.999 260.931C415.839 261.891 415.68 263.813 415.68 263.813C415.68 263.813 417.28 266.214 422.243 270.057C427.207 273.899 436.494 277.101 436.494 277.101C436.494 277.101 441.458 265.574 442.258 259.489C443.059 253.405 445.94 248.442 444.019 243.318" fill="#FF1778"/>
<path d="M424.486 235.793C424.486 235.793 420.802 241.397 420.483 245.399C420.163 249.402 418.402 258.849 418.402 258.849C418.402 258.849 416.159 259.97 415.999 260.931C415.839 261.891 415.68 263.813 415.68 263.813C415.68 263.813 417.28 266.214 422.243 270.057C427.207 273.899 436.494 277.101 436.494 277.101C436.494 277.101 441.458 265.574 442.258 259.489C443.059 253.405 445.94 248.442 444.019 243.318" stroke="#1A2E35" stroke-width="1.33333" stroke-miterlimit="10" stroke-linecap="round" stroke-linejoin="round"/>
<g opacity="0.199997">
<path opacity="0.199997" d="M489.105 371.98H351V296H489.105V371.98Z" fill="#1A2E35" stroke="#1A2E35" stroke-width="4" stroke-miterlimit="10" stroke-linecap="round" stroke-linejoin="round"/>
</g>
<path d="M314.574 381.165V278.681H514.825V383.281" stroke="#1A2E35" stroke-width="4" stroke-miterlimit="10" stroke-linecap="round" stroke-linejoin="round"/>
<path d="M315.631 293.484H511.654" stroke="#1A2E35" stroke-width="4" stroke-miterlimit="10" stroke-linecap="round" stroke-linejoin="round"/>
<path d="M315.631 372.146H511.654" stroke="#1A2E35" stroke-width="4" stroke-miterlimit="10" stroke-linecap="round" stroke-linejoin="round"/>
<g opacity="0.190002">
<path opacity="0.190002" d="M515.396 448.383H307V396H515.396V448.383Z" fill="black"/>
</g>
<path d="M309.287 445.668H519.055V382.224H309.287V445.668Z" fill="white" stroke="#1A2E35" stroke-width="1.33333" stroke-miterlimit="10" stroke-linecap="round" stroke-linejoin="round"/>
<path d="M332.948 445.668H495.395V382.224H332.948V445.668Z" fill="#F4F5F7" stroke="#1A2E35" stroke-width="1.33333" stroke-miterlimit="10" stroke-linecap="round" stroke-linejoin="round"/>
<path d="M309.287 398.219H519.055V382.224H309.287V398.219Z" fill="#1A2E35" stroke="#1A2E35" stroke-width="1.33333" stroke-miterlimit="10" stroke-linecap="round" stroke-linejoin="round"/>
<path d="M305.408 393.856H522.936V375.88H305.408V393.856Z" fill="#F4F5F7" stroke="#1A2E35" stroke-width="1.33333" stroke-miterlimit="10" stroke-linecap="round" stroke-linejoin="round"/>
<path d="M330.829 393.856H497.513V375.88H330.829V393.856Z" fill="white" stroke="#1A2E35" stroke-width="1.33333" stroke-miterlimit="10" stroke-linecap="round" stroke-linejoin="round"/>
<path d="M346.709 294.875V370.855" stroke="#1A2E35" stroke-width="4" stroke-miterlimit="10" stroke-linecap="round" stroke-linejoin="round"/>
<path d="M484.815 294.875V370.855" stroke="#1A2E35" stroke-width="4" stroke-miterlimit="10" stroke-linecap="round" stroke-linejoin="round"/>
<path d="M115.851 83.8118C115.851 83.8118 134.219 187.992 202.534 220.441L193.993 387.812H208.511" stroke="#1A2E35" stroke-width="1.33333" stroke-miterlimit="10" stroke-linecap="round" stroke-linejoin="round"/>
<path d="M208.511 83.8119H115.851V386.103H208.511V83.8119Z" stroke="#1A2E35" stroke-width="1.33333" stroke-miterlimit="10" stroke-linecap="round" stroke-linejoin="round"/>
<path d="M202.533 220.441C202.533 220.441 158.41 175.146 154.713 114.553" stroke="#1A2E35" stroke-width="1.33333" stroke-miterlimit="10" stroke-linecap="round" stroke-linejoin="round"/>
<path d="M180.99 108.809C181.017 106.222 181.081 103.582 181.185 100.89" stroke="#1A2E35" stroke-width="1.33333" stroke-miterlimit="10" stroke-linecap="round" stroke-linejoin="round"/>
<path d="M205.095 208.486C205.095 208.486 182.484 179.446 181.047 117.798" stroke="#1A2E35" stroke-width="1.33333" stroke-miterlimit="10" stroke-linecap="round" stroke-linejoin="round"/>
<path d="M195.702 153.834L147.027 221.295" stroke="#1A2E35" stroke-width="1.33333" stroke-miterlimit="10" stroke-linecap="round" stroke-linejoin="round"/>
<path d="M201.679 130.778L153.006 198.238" stroke="#1A2E35" stroke-width="1.33333" stroke-miterlimit="10" stroke-linecap="round" stroke-linejoin="round"/>
<path d="M110.744 83.8119H18.084V386.103H110.744V83.8119Z" fill="#F4F5F7" stroke="#1A2E35" stroke-width="1.33333" stroke-miterlimit="10" stroke-linecap="round" stroke-linejoin="round"/>
<path d="M46.3567 136.881H22.0047C20.6701 136.881 19.5874 135.798 19.5874 134.465V126.694C19.5874 125.36 20.6701 124.278 22.0047 124.278H46.3567C47.6914 124.278 48.7727 125.36 48.7727 126.694V134.465C48.7727 135.798 47.6914 136.881 46.3567 136.881Z" fill="#818181"/>
<path d="M46.3567 136.881H22.0047C20.6701 136.881 19.5874 135.798 19.5874 134.465V126.694C19.5874 125.36 20.6701 124.278 22.0047 124.278H46.3567C47.6914 124.278 48.7727 125.36 48.7727 126.694V134.465C48.7727 135.798 47.6914 136.881 46.3567 136.881Z" stroke="#1A2E35" stroke-width="1.33333" stroke-miterlimit="10" stroke-linecap="round" stroke-linejoin="round"/>
<path d="M23.5676 125.605L34.1796 84.4794L43.1343 125.273" stroke="#838383" stroke-width="1.33333" stroke-miterlimit="10"/>
<path d="M31.8593 121.293C31.8593 121.293 28.542 117.313 26.2206 117.313C23.8993 117.313 26.5526 119.634 26.5526 119.634C26.5526 119.634 24.2313 118.64 22.9046 118.64C21.578 118.64 18.5926 120.629 18.5926 120.629L23.5673 122.289L19.5873 123.284C19.5873 123.284 18.9246 124.278 17.93 125.273C16.9353 126.268 16.9353 131.242 16.9353 131.242L18.6166 129.14L19.5873 127.926L20.2513 136.549L20.582 141.192L23.2366 132.237L22.2406 142.518L24.2313 141.192L22.2406 149.816L24.894 148.488C24.894 148.488 24.2313 151.473 24.2313 152.468C24.2313 153.462 25.558 158.438 25.558 158.438L27.5473 150.146L29.206 150.81L27.2166 144.509L28.874 144.841L29.206 139.202L28.2113 137.544L27.2166 135.554C27.2166 135.554 29.8686 138.208 30.2006 136.217C30.5326 134.228 27.5473 129.253 27.5473 129.253C27.5473 129.253 30.5326 129.253 30.2006 128.258C29.8686 127.264 28.874 125.605 28.874 125.605H32.1913L34.8433 125.273L31.8593 121.293Z" fill="#34A853"/>
<path d="M35.8385 121.293C35.8385 121.293 39.1558 117.313 41.4772 117.313C43.7985 117.313 41.1452 119.634 41.1452 119.634C41.1452 119.634 43.4665 118.64 44.7932 118.64C46.1198 118.64 49.1052 120.629 49.1052 120.629L44.1305 122.289L48.1105 123.284C48.1105 123.284 48.7732 124.278 49.7678 125.273C50.7625 126.268 50.7625 131.242 50.7625 131.242L49.0812 129.14L48.1105 127.926L47.4465 136.549L47.1158 141.192L44.4612 132.237L45.4558 142.518L43.4665 141.192L45.4558 149.816L42.8038 148.488C42.8038 148.488 43.4665 151.473 43.4665 152.468C43.4665 153.462 42.1398 158.438 42.1398 158.438L40.1505 150.146L38.4918 150.81L40.4812 144.509L38.8238 144.841L38.4918 139.202L39.4865 137.544L40.4812 135.554C40.4812 135.554 37.8292 138.208 37.4972 136.217C37.1652 134.228 40.1505 129.253 40.1505 129.253C40.1505 129.253 37.1652 129.253 37.4972 128.258C37.8292 127.264 38.8238 125.605 38.8238 125.605H35.5065L32.8545 125.273L35.8385 121.293Z" fill="#34A853"/>
<path d="M214.959 59.1346H10.8386V84.8506H214.959V59.1346Z" fill="#1A2E35" stroke="#1A2E35" stroke-width="1.33333" stroke-miterlimit="10" stroke-linecap="round" stroke-linejoin="round"/>
<path d="M23.1516 62.6888V82.8701" stroke="#6B6B6B" stroke-width="1.33333" stroke-miterlimit="10" stroke-linecap="round" stroke-linejoin="round"/>
<path d="M35.6777 62.6888V82.8701" stroke="#6B6B6B" stroke-width="1.33333" stroke-miterlimit="10" stroke-linecap="round" stroke-linejoin="round"/>
<path d="M48.2036 62.6888V82.8701" stroke="#6B6B6B" stroke-width="1.33333" stroke-miterlimit="10" stroke-linecap="round" stroke-linejoin="round"/>
<path d="M60.7297 62.6888V82.8701" stroke="#6B6B6B" stroke-width="1.33333" stroke-miterlimit="10" stroke-linecap="round" stroke-linejoin="round"/>
<path d="M73.2559 62.6888V82.8701" stroke="#6B6B6B" stroke-width="1.33333" stroke-miterlimit="10" stroke-linecap="round" stroke-linejoin="round"/>
<path d="M85.7817 62.6888V82.8701" stroke="#6B6B6B" stroke-width="1.33333" stroke-miterlimit="10" stroke-linecap="round" stroke-linejoin="round"/>
<path d="M98.3083 62.6888V82.8701" stroke="#6B6B6B" stroke-width="1.33333" stroke-miterlimit="10" stroke-linecap="round" stroke-linejoin="round"/>
<path d="M110.834 62.6888V82.8701" stroke="#6B6B6B" stroke-width="1.33333" stroke-miterlimit="10" stroke-linecap="round" stroke-linejoin="round"/>
<path d="M123.361 62.6888V82.8701" stroke="#6B6B6B" stroke-width="1.33333" stroke-miterlimit="10" stroke-linecap="round" stroke-linejoin="round"/>
<path d="M135.886 62.6888V82.8701" stroke="#6B6B6B" stroke-width="1.33333" stroke-miterlimit="10" stroke-linecap="round" stroke-linejoin="round"/>
<path d="M148.413 62.6888V82.8701" stroke="#6B6B6B" stroke-width="1.33333" stroke-miterlimit="10" stroke-linecap="round" stroke-linejoin="round"/>
<path d="M160.939 62.6888V82.8701" stroke="#6B6B6B" stroke-width="1.33333" stroke-miterlimit="10" stroke-linecap="round" stroke-linejoin="round"/>
<path d="M173.465 62.6888V82.8701" stroke="#6B6B6B" stroke-width="1.33333" stroke-miterlimit="10" stroke-linecap="round" stroke-linejoin="round"/>
<path d="M185.991 62.6888V82.8701" stroke="#6B6B6B" stroke-width="1.33333" stroke-miterlimit="10" stroke-linecap="round" stroke-linejoin="round"/>
<path d="M198.517 62.6888V82.8701" stroke="#6B6B6B" stroke-width="1.33333" stroke-miterlimit="10" stroke-linecap="round" stroke-linejoin="round"/>
<path d="M185.453 202.615C185.453 202.615 189.456 200.299 189.832 195.958C190.206 191.618 184.929 188.879 178.849 186.643C172.768 184.405 163.422 184.738 158.256 191.706C153.09 198.675 155.294 212.746 155.322 219.023C155.35 225.301 152.846 241.055 152.846 241.055C152.846 241.055 152.11 245.174 159.43 248.47C166.752 251.765 176.988 243.334 178.626 237.581C180.264 231.829 180.038 223.443 180.038 223.443C180.038 223.443 179.83 214.867 180.401 208.262C180.973 201.657 183.146 200.705 183.146 200.705L185.453 202.615Z" fill="#FF1778"/>
<path d="M185.453 202.615C185.453 202.615 189.456 200.299 189.832 195.958C190.206 191.618 184.929 188.879 178.849 186.643C172.768 184.405 163.422 184.738 158.256 191.706C153.09 198.675 155.294 212.746 155.322 219.023C155.35 225.301 152.846 241.055 152.846 241.055C152.846 241.055 152.11 245.174 159.43 248.47C166.752 251.765 176.988 243.334 178.626 237.581C180.264 231.829 180.038 223.443 180.038 223.443C180.038 223.443 179.83 214.867 180.401 208.262C180.973 201.657 183.146 200.705 183.146 200.705L185.453 202.615Z" stroke="#1A2E35" stroke-width="1.33333" stroke-miterlimit="10" stroke-linecap="round" stroke-linejoin="round"/>
<path d="M193.936 306.785C193.936 306.785 194.292 313.661 193.199 326.307C192.104 338.951 186.44 369.264 185.115 375.805C183.788 382.344 182.048 401.841 182.239 402.409C182.427 402.977 182.805 404.492 182.805 404.492C182.805 404.492 183.943 405.251 187.921 408.092C191.899 410.933 196.445 411.88 195.687 412.828C194.929 413.775 189.625 413.587 185.837 413.207C182.048 412.828 176.744 412.449 175.607 412.259C174.471 412.071 174.281 409.039 174.281 407.335C174.281 405.629 175.229 405.44 174.851 400.893C174.471 396.348 174.157 368.392 174.341 359.661C174.527 350.931 176.091 343.841 177.861 340.952C179.632 338.063 179.481 331.015 177.781 326.493C176.08 321.975 172.465 311.013 172.465 311.013C172.465 311.013 182.237 310.147 185.339 309.465C188.439 308.781 191.827 306.983 191.827 306.983L193.936 306.785Z" fill="white"/>
<path d="M193.936 306.785C193.936 306.785 194.292 313.661 193.199 326.307C192.104 338.951 186.44 369.264 185.115 375.805C183.788 382.344 182.048 401.841 182.239 402.409C182.427 402.977 182.805 404.492 182.805 404.492C182.805 404.492 183.943 405.251 187.921 408.092C191.899 410.933 196.445 411.88 195.687 412.828C194.929 413.775 189.625 413.587 185.837 413.207C182.048 412.828 176.744 412.449 175.607 412.259C174.471 412.071 174.281 409.039 174.281 407.335C174.281 405.629 175.229 405.44 174.851 400.893C174.471 396.348 174.157 368.392 174.341 359.661C174.527 350.931 176.091 343.841 177.861 340.952C179.632 338.063 179.481 331.015 177.781 326.493C176.08 321.975 172.465 311.013 172.465 311.013C172.465 311.013 182.237 310.147 185.339 309.465C188.439 308.781 191.827 306.983 191.827 306.983L193.936 306.785Z" stroke="#1A2E35" stroke-width="1.33333" stroke-miterlimit="10" stroke-linecap="round" stroke-linejoin="round"/>
<path d="M183.433 385.751C184.057 381.714 184.674 377.978 185.114 375.803C186.441 369.265 192.105 338.95 193.198 326.306C194.293 313.662 193.936 306.785 193.936 306.785L191.828 306.983C191.828 306.983 188.44 308.781 185.338 309.463C182.237 310.147 172.465 311.013 172.465 311.013C172.465 311.013 176.081 321.974 177.781 326.494C179.482 331.014 179.633 338.062 177.862 340.951C176.09 343.839 174.526 350.931 174.342 359.662C174.242 364.377 174.088 374.85 173.965 384.21C176.097 385.179 179.56 386.297 183.433 385.751Z" fill="#DF382B"/>
<path d="M183.433 385.751C184.057 381.714 184.674 377.978 185.114 375.803C186.441 369.265 192.105 338.95 193.198 326.306C194.293 313.662 193.936 306.785 193.936 306.785L191.828 306.983C191.828 306.983 188.44 308.781 185.338 309.463C182.237 310.147 172.465 311.013 172.465 311.013C172.465 311.013 176.081 321.974 177.781 326.494C179.482 331.014 179.633 338.062 177.862 340.951C176.09 343.839 174.526 350.931 174.342 359.662C174.242 364.377 174.088 374.85 173.965 384.21C176.097 385.179 179.56 386.297 183.433 385.751Z" stroke="#1A2E35" stroke-width="1.33333" stroke-miterlimit="10" stroke-linecap="round" stroke-linejoin="round"/>
<path d="M187.921 408.092C183.942 405.25 182.806 404.492 182.806 404.492C182.806 404.492 182.758 404.302 182.69 404.038C182.209 404.154 181.673 404.39 181.48 404.871C181.101 405.819 180.722 407.144 180.722 407.144L174.486 406.01C174.373 406.423 174.282 406.806 174.282 407.335C174.282 409.039 174.472 412.07 175.608 412.259C176.744 412.45 182.049 412.828 185.837 413.207C189.625 413.586 194.929 413.775 195.688 412.828C196.445 411.88 191.898 410.934 187.921 408.092Z" fill="white"/>
<path d="M187.921 408.092C183.942 405.25 182.806 404.492 182.806 404.492C182.806 404.492 182.758 404.302 182.69 404.038C182.209 404.154 181.673 404.39 181.48 404.871C181.101 405.819 180.722 407.144 180.722 407.144L174.486 406.01C174.373 406.423 174.282 406.806 174.282 407.335C174.282 409.039 174.472 412.07 175.608 412.259C176.744 412.45 182.049 412.828 185.837 413.207C189.625 413.586 194.929 413.775 195.688 412.828C196.445 411.88 191.898 410.934 187.921 408.092Z" stroke="#1A2E35" stroke-width="1.33333" stroke-miterlimit="10" stroke-linecap="round" stroke-linejoin="round"/>
<path d="M158.73 311.536C158.73 311.536 164.06 322.454 168.256 328.902C172.452 335.35 176.279 343.856 176.279 343.856C176.279 343.856 167.436 349.367 164.978 355.808C162.519 362.251 155.392 387.494 153.679 391.908C151.967 396.324 148.519 402.787 149.466 405.819C150.412 408.85 157.8 412.07 159.316 412.45C160.832 412.828 169.735 413.775 170.492 412.828C171.251 411.88 165.188 408.66 163.483 406.387C161.779 404.114 159.695 399.378 159.695 399.378C159.695 399.378 168.655 377.043 173.223 370.402C177.79 363.762 189.155 346.68 190.483 344.514C191.811 342.347 192.434 339.55 191.842 337.598C191.25 335.644 182.706 311.328 182.706 311.328C182.706 311.328 177.495 312.208 170.702 311.62C163.907 311.032 159.048 310.043 159.048 310.043L158.73 311.536Z" fill="white"/>
<path d="M158.73 311.536C158.73 311.536 164.06 322.454 168.256 328.902C172.452 335.35 176.279 343.856 176.279 343.856C176.279 343.856 167.436 349.367 164.978 355.808C162.519 362.251 155.392 387.494 153.679 391.908C151.967 396.324 148.519 402.787 149.466 405.819C150.412 408.85 157.8 412.07 159.316 412.45C160.832 412.828 169.735 413.775 170.492 412.828C171.251 411.88 165.188 408.66 163.483 406.387C161.779 404.114 159.695 399.378 159.695 399.378C159.695 399.378 168.655 377.043 173.223 370.402C177.79 363.762 189.155 346.68 190.483 344.514C191.811 342.347 192.434 339.55 191.842 337.598C191.25 335.644 182.706 311.328 182.706 311.328C182.706 311.328 177.495 312.208 170.702 311.62C163.907 311.032 159.048 310.043 159.048 310.043L158.73 311.536Z" stroke="#1A2E35" stroke-width="1.33333" stroke-miterlimit="10" stroke-linecap="round" stroke-linejoin="round"/>
<path d="M191.842 337.598C191.25 335.644 182.706 311.328 182.706 311.328C182.706 311.328 177.495 312.208 170.702 311.622C163.907 311.032 159.048 310.043 159.048 310.043L158.73 311.536C158.73 311.536 164.06 322.455 168.256 328.903C172.452 335.35 176.279 343.856 176.279 343.856C176.279 343.856 167.436 349.366 164.978 355.808C163.556 359.534 160.575 369.54 157.982 378.175C159.299 379.332 160.863 380.37 162.619 380.894C164.034 381.316 165.563 381.467 167.05 381.468C169.322 376.987 171.604 372.755 173.223 370.403C177.79 363.762 189.155 346.68 190.483 344.514C191.811 342.348 192.434 339.55 191.842 337.598Z" fill="#DF382B"/>
<path d="M191.842 337.598C191.25 335.644 182.706 311.328 182.706 311.328C182.706 311.328 177.495 312.208 170.702 311.622C163.907 311.032 159.048 310.043 159.048 310.043L158.73 311.536C158.73 311.536 164.06 322.455 168.256 328.903C172.452 335.35 176.279 343.856 176.279 343.856C176.279 343.856 167.436 349.366 164.978 355.808C163.556 359.534 160.575 369.54 157.982 378.175C159.299 379.332 160.863 380.37 162.619 380.894C164.034 381.316 165.563 381.467 167.05 381.468C169.322 376.987 171.604 372.755 173.223 370.403C177.79 363.762 189.155 346.68 190.483 344.514C191.811 342.348 192.434 339.55 191.842 337.598Z" stroke="#1A2E35" stroke-width="1.33333" stroke-miterlimit="10" stroke-linecap="round" stroke-linejoin="round"/>
<path d="M163.484 406.387C161.78 404.113 159.696 399.377 159.696 399.377C159.696 399.377 159.77 399.169 159.905 398.791C159.204 398.791 158.306 399.044 157.612 400.136C156.285 402.22 155.528 404.492 155.528 404.492L150.304 401.295C149.541 403.025 149.084 404.593 149.466 405.819C150.413 408.851 157.801 412.071 159.317 412.449C160.832 412.828 169.734 413.775 170.493 412.828C171.25 411.88 165.189 408.66 163.484 406.387Z" fill="white"/>
<path d="M163.484 406.387C161.78 404.113 159.696 399.377 159.696 399.377C159.696 399.377 159.77 399.169 159.905 398.791C159.204 398.791 158.306 399.044 157.612 400.136C156.285 402.22 155.528 404.492 155.528 404.492L150.304 401.295C149.541 403.025 149.084 404.593 149.466 405.819C150.413 408.851 157.801 412.071 159.317 412.449C160.832 412.828 169.734 413.775 170.493 412.828C171.25 411.88 165.189 408.66 163.484 406.387Z" stroke="#1A2E35" stroke-width="1.33333" stroke-miterlimit="10" stroke-linecap="round" stroke-linejoin="round"/>
<path d="M155.386 304.022C155.386 304.022 156.488 308.87 157.112 310.445C157.737 312.021 159.838 314.105 166.412 315.051C172.984 316.001 178.588 314.965 183.674 313.314C188.761 311.661 194.652 309.509 195.332 308.237C196.012 306.965 195.893 299.539 195.893 299.539C195.893 299.539 188.241 306.673 177.657 305.947C167.072 305.222 158.068 301.591 156.936 301.494C155.804 301.395 155.386 304.022 155.386 304.022Z" fill="#FFBE21"/>
<path d="M155.386 304.022C155.386 304.022 156.488 308.87 157.112 310.445C157.737 312.021 159.838 314.105 166.412 315.051C172.984 316.001 178.588 314.965 183.674 313.314C188.761 311.661 194.652 309.509 195.332 308.237C196.012 306.965 195.893 299.539 195.893 299.539C195.893 299.539 188.241 306.673 177.657 305.947C167.072 305.222 158.068 301.591 156.936 301.494C155.804 301.395 155.386 304.022 155.386 304.022Z" stroke="#1A2E35" stroke-width="1.33333" stroke-miterlimit="10" stroke-linecap="round" stroke-linejoin="round"/>
<path d="M167.753 218.197C167.753 218.197 168.158 224.506 165.805 227.535C163.45 230.565 152.428 239.307 150.845 242.214C149.262 245.118 150.657 261.971 151.957 268.93C153.256 275.887 153.114 286.333 153.33 292.625C153.546 298.919 153.965 300.667 155.386 304.022C156.808 307.377 166.68 309.751 173.506 309.962C180.333 310.171 188.069 306.467 190.809 305.563C193.549 304.661 196.313 301.286 196.845 297.339C197.376 293.393 195.36 279.338 195.194 276.851C195.029 274.366 194.398 259.67 192.228 249.595C190.057 239.521 186.338 236.346 184.425 234.279C182.513 232.213 178.565 231.682 176.588 230.369C174.61 229.058 177.462 222.459 177.462 222.459C177.462 222.459 167.704 218.763 167.753 218.197Z" fill="#FFBE21"/>
<path d="M167.753 218.197C167.753 218.197 168.158 224.506 165.805 227.535C163.45 230.565 152.428 239.307 150.845 242.214C149.262 245.118 150.657 261.971 151.957 268.93C153.256 275.887 153.114 286.333 153.33 292.625C153.546 298.919 153.965 300.667 155.386 304.022C156.808 307.377 166.68 309.751 173.506 309.962C180.333 310.171 188.069 306.467 190.809 305.563C193.549 304.661 196.313 301.286 196.845 297.339C197.376 293.393 195.36 279.338 195.194 276.851C195.029 274.366 194.398 259.67 192.228 249.595C190.057 239.521 186.338 236.346 184.425 234.279C182.513 232.213 178.565 231.682 176.588 230.369C174.61 229.058 177.462 222.459 177.462 222.459C177.462 222.459 167.704 218.763 167.753 218.197V218.197Z" stroke="#1A2E35" stroke-width="1.33333" stroke-miterlimit="10" stroke-linecap="round" stroke-linejoin="round"/>
<path d="M180.142 250.831C182.75 248.135 180.038 233.933 179.907 231.813C178.65 231.354 177.437 230.933 176.587 230.369C174.61 229.057 177.462 222.459 177.462 222.459C177.462 222.459 167.705 218.763 167.753 218.197C167.753 218.197 168.158 224.506 165.805 227.535C164.939 228.649 162.899 230.537 160.59 232.621C161.675 233.109 163.815 234.361 165.727 237.226C168.421 241.262 177.427 253.639 180.142 250.831Z" fill="white"/>
<path d="M180.142 250.831C182.75 248.135 180.038 233.933 179.907 231.813C178.65 231.354 177.437 230.933 176.587 230.369C174.61 229.057 177.462 222.459 177.462 222.459C177.462 222.459 167.705 218.763 167.753 218.197C167.753 218.197 168.158 224.506 165.805 227.535C164.939 228.649 162.899 230.537 160.59 232.621C161.675 233.109 163.815 234.361 165.727 237.226C168.421 241.262 177.427 253.639 180.142 250.831Z" stroke="#1A2E35" stroke-width="1.33333" stroke-miterlimit="10" stroke-linecap="round" stroke-linejoin="round"/>
<path d="M187.857 238.57C187.857 238.57 190.763 240.152 193.465 246.28C196.168 252.407 201.655 263.72 202.591 266.083C203.527 268.446 202.635 272.172 197.892 274.234C193.151 276.295 178.693 276.375 178.693 276.375L181.529 269.966L190.512 265.038C190.512 265.038 191.799 261.156 191.977 259.08C192.157 257.006 188.5 244.33 188.5 244.33" fill="#FFBE21"/>
<path d="M187.857 238.57C187.857 238.57 190.763 240.152 193.465 246.28C196.168 252.407 201.655 263.72 202.591 266.083C203.527 268.446 202.635 272.172 197.892 274.234C193.151 276.295 178.693 276.375 178.693 276.375L181.529 269.966L190.512 265.038C190.512 265.038 191.799 261.156 191.977 259.08C192.157 257.006 188.5 244.33 188.5 244.33" stroke="#1A2E35" stroke-width="1.33333" stroke-miterlimit="10" stroke-linecap="round" stroke-linejoin="round"/>
<path d="M163.469 269.925C163.469 269.925 160.237 272.118 160.107 273.627C159.976 275.137 159.969 277.418 161.053 278.082C162.136 278.746 166.803 275.347 167.369 275.397C167.936 275.446 167.12 269.481 163.469 269.925Z" fill="white"/>
<path d="M163.469 269.925C163.469 269.925 160.237 272.118 160.107 273.627C159.976 275.137 159.969 277.418 161.053 278.082C162.136 278.746 166.803 275.347 167.369 275.397C167.936 275.446 167.12 269.481 163.469 269.925Z" stroke="#1A2E35" stroke-width="1.33333" stroke-miterlimit="10" stroke-linecap="round" stroke-linejoin="round"/>
<path d="M182.068 263.738C182.068 263.738 186.113 263.137 187.688 262.513C189.262 261.888 193.22 264.512 193.72 265.317C194.221 266.12 189.701 267.821 188.741 267.928C187.781 268.036 182.068 263.738 182.068 263.738Z" fill="white"/>
<path d="M182.068 263.738C182.068 263.738 186.113 263.137 187.688 262.513C189.262 261.888 193.22 264.512 193.72 265.317C194.221 266.12 189.701 267.821 188.741 267.928C187.781 268.036 182.068 263.738 182.068 263.738Z" stroke="#1A2E35" stroke-width="1.33333" stroke-miterlimit="10" stroke-linecap="round" stroke-linejoin="round"/>
<path d="M152.767 246.372C152.767 246.372 151.907 249.72 152.917 253.42C153.929 257.122 162.509 270.032 164.432 274.191C166.353 278.35 171.156 282.188 174.208 282.071C177.26 281.955 180.785 276.366 181.623 275.488C182.459 274.61 189.2 267.016 189.2 267.016C189.2 267.016 187.935 264.055 185.293 263.827C182.651 263.598 179.787 263.731 179.787 263.731L176.341 264.003C176.341 264.003 169.515 248.391 167.323 245.159C165.129 241.928 160.633 241.159 160.633 241.159" fill="#FFBE21"/>
<path d="M152.767 246.372C152.767 246.372 151.907 249.72 152.917 253.42C153.929 257.122 162.509 270.032 164.432 274.191C166.353 278.35 171.156 282.188 174.208 282.071C177.26 281.955 180.785 276.366 181.623 275.488C182.459 274.61 189.2 267.016 189.2 267.016C189.2 267.016 187.935 264.055 185.293 263.827C182.651 263.598 179.787 263.731 179.787 263.731L176.341 264.003C176.341 264.003 169.515 248.391 167.323 245.159C165.129 241.928 160.633 241.159 160.633 241.159" stroke="#1A2E35" stroke-width="1.33333" stroke-miterlimit="10" stroke-linecap="round" stroke-linejoin="round"/>
<path d="M181.856 195.839C181.856 195.839 179.479 201.338 176.1 205.228C172.721 209.119 166.235 215.974 166.235 215.974C166.235 215.974 167.623 219.706 169.805 220.846C171.989 221.986 178.112 225.938 181.008 225.427C183.904 224.918 185.524 214.98 185.524 214.98C185.524 214.98 186.879 214.716 187.353 213.616C187.828 212.518 185.784 207.587 185.832 207.02C185.881 206.455 186.757 202.918 185.837 200.367C184.917 197.815 181.856 195.839 181.856 195.839Z" fill="white"/>
<path d="M181.856 195.839C181.856 195.839 179.479 201.338 176.1 205.228C172.721 209.119 166.235 215.974 166.235 215.974C166.235 215.974 167.623 219.706 169.805 220.846C171.989 221.986 178.112 225.938 181.008 225.427C183.904 224.918 185.524 214.98 185.524 214.98C185.524 214.98 186.879 214.716 187.353 213.616C187.828 212.518 185.784 207.587 185.832 207.02C185.881 206.455 186.757 202.918 185.837 200.367C184.917 197.815 181.856 195.839 181.856 195.839Z" stroke="#1A2E35" stroke-width="1.33333" stroke-miterlimit="10" stroke-linecap="round" stroke-linejoin="round"/>
<path d="M74.3913 303.704L79.2313 354.83C79.2313 354.83 50.4926 396.274 52.006 397.787C53.518 399.299 57.1486 402.626 58.0566 402.626C58.9633 402.626 80.7446 376.912 85.8873 373.586C91.03 370.258 95.5673 363.603 96.1726 356.947C96.778 350.291 97.382 312.78 97.382 304.008C97.382 295.234 96.778 289.788 97.382 288.278C97.9873 286.764 97.9873 282.528 97.9873 282.528C97.9873 282.528 74.9966 287.974 72.8793 287.672" fill="#FFBE21"/>
<path d="M74.3913 303.704L79.2313 354.83C79.2313 354.83 50.4926 396.274 52.006 397.787C53.518 399.299 57.1486 402.626 58.0566 402.626C58.9633 402.626 80.7446 376.912 85.8873 373.586C91.03 370.258 95.5673 363.603 96.1726 356.947C96.778 350.291 97.382 312.78 97.382 304.008C97.382 295.234 96.778 289.788 97.382 288.278C97.9873 286.764 97.9873 282.528 97.9873 282.528C97.9873 282.528 74.9966 287.974 72.8793 287.672" stroke="#1A2E35" stroke-width="1.33333" stroke-miterlimit="10" stroke-linecap="round" stroke-linejoin="round"/>
<path d="M52.0057 397.786C52.0057 397.786 45.6523 404.441 45.6523 405.954C45.6523 407.468 52.611 411.4 54.123 412.004C55.635 412.609 61.383 412.912 63.803 412.912C66.223 412.912 69.8537 412.308 68.9457 410.492C68.0377 408.677 60.779 406.257 60.779 406.257L58.0563 402.626L52.0057 397.786Z" fill="white"/>
<path d="M52.0057 397.786C52.0057 397.786 45.6523 404.441 45.6523 405.954C45.6523 407.468 52.611 411.4 54.123 412.004C55.635 412.609 61.383 412.912 63.803 412.912C66.223 412.912 69.8537 412.308 68.9457 410.492C68.0377 408.677 60.779 406.257 60.779 406.257L58.0563 402.626L52.0057 397.786Z" stroke="#1A2E35" stroke-width="1.33333" stroke-miterlimit="10" stroke-linecap="round" stroke-linejoin="round"/>
<path d="M52.9953 278.594C52.9953 278.594 49.2833 288.278 48.6779 297.655C48.0726 307.032 52.6099 340.612 53.5179 342.427C54.4259 344.242 54.1233 403.232 53.8206 405.047C53.5179 406.862 53.2153 410.492 54.1233 410.492C55.0299 410.492 63.8033 412.004 65.0139 409.584C66.2233 407.164 65.6179 400.51 65.6179 398.694C65.6179 396.879 68.3406 356.644 68.9459 354.224C69.5513 351.804 72.5766 317.015 72.5766 317.015L74.0886 308.847L75.6019 306.124L83.4673 293.419C83.4673 293.419 73.4833 287.672 66.8286 284.042C60.1726 280.411 55.1953 277.076 52.9953 278.594Z" fill="#FFBE21"/>
<path d="M52.9953 278.594C52.9953 278.594 49.2833 288.278 48.6779 297.655C48.0726 307.032 52.6099 340.612 53.5179 342.427C54.4259 344.242 54.1233 403.232 53.8206 405.047C53.5179 406.862 53.2153 410.492 54.1233 410.492C55.0299 410.492 63.8033 412.004 65.0139 409.584C66.2233 407.164 65.6179 400.51 65.6179 398.694C65.6179 396.879 68.3406 356.644 68.9459 354.224C69.5513 351.804 72.5766 317.015 72.5766 317.015L74.0886 308.847L75.6019 306.124L83.4673 293.419C83.4673 293.419 73.4833 287.672 66.8286 284.042C60.1726 280.411 55.1953 277.076 52.9953 278.594Z" stroke="#1A2E35" stroke-width="1.33333" stroke-miterlimit="10" stroke-linecap="round" stroke-linejoin="round"/>
<path d="M57.4503 406.257C57.4503 406.257 65.013 403.231 68.341 405.047C71.669 406.862 74.6943 412.005 74.6943 413.517H53.821C53.821 413.517 52.913 408.979 57.4503 406.257Z" fill="white"/>
<path d="M57.4503 406.257C57.4503 406.257 65.013 403.231 68.341 405.047C71.669 406.862 74.6943 412.005 74.6943 413.517H53.821C53.821 413.517 52.913 408.979 57.4503 406.257Z" stroke="#1A2E35" stroke-width="1.33333" stroke-miterlimit="10" stroke-linecap="round" stroke-linejoin="round"/>
<path d="M90.3097 228.3C90.3097 228.3 85.7377 226.973 81.6084 226.678C77.4777 226.382 74.0857 229.037 72.463 232.577C70.8404 236.117 62.435 261.78 61.2537 264.582C60.075 267.384 55.0604 275.053 52.995 278.594C50.9297 282.133 56.6817 290.098 61.2537 293.048C65.827 295.997 85.0004 297.62 88.687 296.292C92.3737 294.965 94.8817 292.014 95.3244 291.72C95.767 291.425 105.648 267.828 106.68 264.877C107.714 261.928 115.235 249.981 115.235 249.981C115.235 249.981 118.775 242.164 117.448 237.592C116.12 233.02 109.778 230.954 107.271 230.954C104.763 230.954 98.7164 231.102 96.5044 230.513C94.2924 229.922 90.3097 228.3 90.3097 228.3Z" fill="#4285F4"/>
<path d="M90.3097 228.3C90.3097 228.3 85.7377 226.973 81.6084 226.678C77.4777 226.382 74.0857 229.037 72.463 232.577C70.8404 236.117 62.435 261.78 61.2537 264.582C60.075 267.384 55.0604 275.053 52.995 278.594C50.9297 282.133 56.6817 290.098 61.2537 293.048C65.827 295.997 85.0004 297.62 88.687 296.292C92.3737 294.965 94.8817 292.014 95.3244 291.72C95.767 291.425 105.648 267.828 106.68 264.877C107.714 261.928 115.235 249.981 115.235 249.981C115.235 249.981 118.775 242.164 117.448 237.592C116.12 233.02 109.778 230.954 107.271 230.954C104.763 230.954 98.7164 231.102 96.5044 230.513C94.2924 229.922 90.3097 228.3 90.3097 228.3Z" stroke="#1A2E35" stroke-width="1.33333" stroke-miterlimit="10" stroke-linecap="round" stroke-linejoin="round"/>
<path d="M87.0649 215.616C87.0649 215.616 87.1223 215.829 87.2129 216.205C87.5556 217.628 88.3609 221.379 88.2449 224.76C88.0969 229.037 88.6876 233.904 91.6369 237.887C94.5876 241.868 97.9796 239.361 98.5689 236.264C99.1583 233.167 102.109 223.433 102.109 223.433C102.109 223.433 95.7663 222.696 93.4063 219.745C91.0476 216.796 87.3596 214.288 87.3596 214.288L87.0649 215.616Z" fill="white"/>
<path d="M87.0649 215.616C87.0649 215.616 87.1223 215.829 87.2129 216.205C87.5556 217.628 88.3609 221.379 88.2449 224.76C88.0969 229.037 88.6876 233.904 91.6369 237.887C94.5876 241.868 97.9796 239.361 98.5689 236.264C99.1583 233.167 102.109 223.433 102.109 223.433C102.109 223.433 95.7663 222.696 93.4063 219.745C91.0476 216.796 87.3596 214.288 87.3596 214.288L87.0649 215.616Z" stroke="#1A2E35" stroke-width="1.33333" stroke-miterlimit="10" stroke-linecap="round" stroke-linejoin="round"/>
<path d="M106.829 205.144L109.483 200.424L112.138 202.637C112.138 202.637 112.581 196.589 110.81 192.017C109.041 187.445 101.371 185.971 96.9461 185.381C92.5221 184.791 87.2128 185.823 82.4928 190.839C77.7728 195.852 78.9528 201.604 79.9861 204.849C81.0181 208.093 82.4928 213.404 83.3781 214.288C84.2635 215.173 87.2128 216.501 89.2768 214.436C91.3421 212.371 90.7515 208.684 91.6368 207.061C92.5221 205.44 99.3061 206.767 101.223 206.324C103.141 205.881 104.763 203.817 104.763 203.817L106.829 205.144Z" fill="#DF382B"/>
<path d="M106.829 205.144L109.483 200.424L112.138 202.637C112.138 202.637 112.581 196.589 110.81 192.017C109.041 187.445 101.371 185.971 96.9461 185.381C92.5221 184.791 87.2128 185.823 82.4928 190.839C77.7728 195.852 78.9528 201.604 79.9861 204.849C81.0181 208.093 82.4928 213.404 83.3781 214.288C84.2635 215.173 87.2128 216.501 89.2768 214.436C91.3421 212.371 90.7515 208.684 91.6368 207.061C92.5221 205.44 99.3061 206.767 101.223 206.324C103.141 205.881 104.763 203.817 104.763 203.817L106.829 205.144Z" stroke="#1A2E35" stroke-width="1.33333" stroke-miterlimit="10" stroke-linecap="round" stroke-linejoin="round"/>
<path d="M85.5905 210.601C85.5905 210.601 83.6732 206.029 81.9025 208.241C80.1332 210.454 82.3452 215.616 83.8198 216.501C85.2945 217.385 86.6225 216.353 86.6225 216.353C86.6225 216.353 92.2278 224.17 93.5545 225.497C94.8825 226.825 97.6838 229.037 101.076 226.973C104.469 224.908 106.829 218.27 107.419 212.372C108.008 206.472 107.124 198.36 107.124 198.36L99.7492 203.226L100.192 200.573C100.192 200.573 97.6838 202.49 95.7665 203.08C93.8492 203.669 91.0478 204.406 91.0478 204.406L92.0798 201.014C92.0798 201.014 90.4572 203.817 89.1305 205.144C87.8025 206.472 87.6545 208.832 87.6545 209.421V211.929L86.3278 210.601L85.5905 211.633V210.601Z" fill="white"/>
<path d="M85.5905 210.601C85.5905 210.601 83.6732 206.029 81.9025 208.241C80.1332 210.454 82.3452 215.616 83.8198 216.501C85.2945 217.385 86.6225 216.353 86.6225 216.353C86.6225 216.353 92.2278 224.17 93.5545 225.497C94.8825 226.825 97.6838 229.037 101.076 226.973C104.469 224.908 106.829 218.27 107.419 212.372C108.008 206.472 107.124 198.36 107.124 198.36L99.7492 203.226L100.192 200.573C100.192 200.573 97.6838 202.49 95.7665 203.08C93.8492 203.669 91.0478 204.406 91.0478 204.406L92.0798 201.014C92.0798 201.014 90.4572 203.817 89.1305 205.144C87.8025 206.472 87.6545 208.832 87.6545 209.421V211.929L86.3278 210.601L85.5905 211.633V210.601Z" stroke="#1A2E35" stroke-width="1.33333" stroke-miterlimit="10" stroke-linecap="round" stroke-linejoin="round"/>
<g opacity="0.199997">
<path opacity="0.199997" d="M177.105 396.98H39V321H177.105V396.98Z" fill="#1A2E35" stroke="#1A2E35" stroke-width="4" stroke-miterlimit="10" stroke-linecap="round" stroke-linejoin="round"/>
</g>
<path d="M10.4458 381.165V278.681H210.696V383.281" stroke="#1A2E35" stroke-width="4" stroke-miterlimit="10" stroke-linecap="round" stroke-linejoin="round"/>
<path d="M11.5032 293.484H207.525" stroke="#1A2E35" stroke-width="4" stroke-miterlimit="10" stroke-linecap="round" stroke-linejoin="round"/>
<path d="M11.5032 372.146H207.525" stroke="#1A2E35" stroke-width="4" stroke-miterlimit="10" stroke-linecap="round" stroke-linejoin="round"/>
<g opacity="0.190002">
<path opacity="0.190002" d="M211 371.383H10V319H211V371.383Z" fill="black"/>
</g>
<path d="M5.15845 445.668H214.926V382.224H5.15845V445.668Z" fill="#F4F5F7" stroke="#1A2E35" stroke-width="1.33333" stroke-miterlimit="10" stroke-linecap="round" stroke-linejoin="round"/>
<path d="M28.8198 445.668H191.266V382.224H28.8198V445.668Z" fill="white" stroke="#1A2E35" stroke-width="1.33333" stroke-miterlimit="10" stroke-linecap="round" stroke-linejoin="round"/>
<path d="M5.15845 398.219H214.926V382.224H5.15845V398.219Z" fill="#1A2E35" stroke="#1A2E35" stroke-width="1.33333" stroke-miterlimit="10" stroke-linecap="round" stroke-linejoin="round"/>
<path d="M1.27856 393.856H218.807V375.88H1.27856V393.856Z" fill="#F4F5F7" stroke="#1A2E35" stroke-width="1.33333" stroke-miterlimit="10" stroke-linecap="round" stroke-linejoin="round"/>
<path d="M26.7012 393.856H193.385V375.88H26.7012V393.856Z" fill="white" stroke="#1A2E35" stroke-width="1.33333" stroke-miterlimit="10" stroke-linecap="round" stroke-linejoin="round"/>
<path d="M42.5818 294.875V370.855" stroke="#1A2E35" stroke-width="4" stroke-miterlimit="10" stroke-linecap="round" stroke-linejoin="round"/>
<path d="M180.687 294.875V370.855" stroke="#1A2E35" stroke-width="4" stroke-miterlimit="10" stroke-linecap="round" stroke-linejoin="round"/>
<path d="M85.9874 227.774C85.9874 227.774 81.7527 224.95 76.1047 226.565C70.4594 228.178 69.8527 232.211 68.2394 236.043C66.6261 239.875 58.1567 269.521 58.1567 272.345C58.1567 275.167 60.5767 276.983 63.6007 276.781C66.6261 276.579 68.4421 274.361 69.0461 271.739C69.6527 269.117 78.3234 240.278 78.3234 240.278" fill="#4285F4"/>
<path d="M85.9874 227.774C85.9874 227.774 81.7527 224.95 76.1047 226.565C70.4594 228.178 69.8527 232.211 68.2394 236.043C66.6261 239.875 58.1567 269.521 58.1567 272.345C58.1567 275.167 60.5767 276.983 63.6007 276.781C66.6261 276.579 68.4421 274.361 69.0461 271.739C69.6527 269.117 78.3234 240.278 78.3234 240.278" stroke="#1A2E35" stroke-width="1.33333" stroke-miterlimit="10" stroke-linecap="round" stroke-linejoin="round"/>
<path d="M100.105 281.219C100.105 281.219 103.13 283.436 103.937 284.041C104.743 284.647 107.97 291.908 108.171 293.319C108.374 294.731 108.777 298.159 108.777 298.159C108.777 298.159 106.65 299.357 105.037 299.155C103.423 298.953 103.353 299.308 103.353 299.308C102.546 297.493 97.382 288.277 97.382 288.277L93.45 283.033L98.4913 281.017L100.105 281.219Z" fill="white"/>
<path d="M100.105 281.219C100.105 281.219 103.13 283.436 103.937 284.041C104.743 284.647 107.97 291.908 108.171 293.319C108.374 294.731 108.777 298.159 108.777 298.159C108.777 298.159 106.65 299.357 105.037 299.155C103.423 298.953 103.353 299.308 103.353 299.308C102.546 297.493 97.382 288.277 97.382 288.277L93.45 283.033L98.4913 281.017L100.105 281.219Z" stroke="#1A2E35" stroke-width="1.33333" stroke-miterlimit="10" stroke-linecap="round" stroke-linejoin="round"/>
<path d="M97.9946 288.439C97.9946 288.439 98.76 292.419 99.2186 293.951C99.6786 295.48 100.597 299.461 100.597 299.461H101.975L101.209 292.419" fill="white"/>
<path d="M97.9946 288.439C97.9946 288.439 98.76 292.419 99.2186 293.951C99.6786 295.48 100.597 299.461 100.597 299.461H101.975L101.209 292.419" stroke="#1A2E35" stroke-width="1.33333" stroke-miterlimit="10" stroke-linecap="round" stroke-linejoin="round"/>
<path d="M103.506 291.501L105.037 299.155" stroke="#1A2E35" stroke-width="1.33333" stroke-miterlimit="10" stroke-linecap="round" stroke-linejoin="round"/>
<path d="M105.649 291.042L107.486 298.236" stroke="#1A2E35" stroke-width="1.33333" stroke-miterlimit="10" stroke-linecap="round" stroke-linejoin="round"/>
<path d="M67.0298 267.504L98.4912 281.017L95.2645 284.445C95.2645 284.445 76.5085 282.025 69.6525 280.008C62.7952 277.99 58.1565 277.185 58.1565 272.345" fill="#4285F4"/>
<path d="M67.0298 267.504L98.4912 281.017L95.2645 284.445C95.2645 284.445 76.5085 282.025 69.6525 280.008C62.7952 277.99 58.1565 277.185 58.1565 272.345" stroke="#1A2E35" stroke-width="1.33333" stroke-miterlimit="10" stroke-linecap="round" stroke-linejoin="round"/>
<path d="M111.6 242.295L116.239 276.983C116.239 276.983 117.852 280.209 121.684 279.404C125.516 278.596 127.129 276.579 126.121 271.941C125.112 267.301 121.483 242.699 119.667 238.261C117.852 233.824 114.316 230.644 110.793 230.799C107.271 230.955 105.147 231.203 105.147 231.203" fill="#4285F4"/>
<path d="M111.6 242.295L116.239 276.983C116.239 276.983 117.852 280.209 121.684 279.404C125.516 278.596 127.129 276.579 126.121 271.941C125.112 267.301 121.483 242.699 119.667 238.261C117.852 233.824 114.316 230.644 110.793 230.799C107.271 230.955 105.147 231.203 105.147 231.203" stroke="#1A2E35" stroke-width="1.33333" stroke-miterlimit="10" stroke-linecap="round" stroke-linejoin="round"/>
<path d="M95.4666 281.017C95.4666 281.017 92.0412 281.874 90.9519 283.081C89.6839 284.488 84.7772 294.326 84.3746 295.134C83.9706 295.94 84.3746 303.806 85.1812 304.008C85.9879 304.21 87.8026 302.797 89.0132 301.184C90.2226 299.57 91.2306 295.134 91.2306 295.134C91.2306 295.134 94.6599 292.108 95.2652 290.293C95.8692 288.48 96.4746 285.252 96.4746 285.252L98.6932 283.638L95.4666 281.017Z" fill="white"/>
<path d="M95.4666 281.017C95.4666 281.017 92.0412 281.874 90.9519 283.081C89.6839 284.488 84.7772 294.326 84.3746 295.134C83.9706 295.94 84.3746 303.806 85.1812 304.008C85.9879 304.21 87.8026 302.797 89.0132 301.184C90.2226 299.57 91.2306 295.134 91.2306 295.134C91.2306 295.134 94.6599 292.108 95.2652 290.293C95.8692 288.48 96.4746 285.252 96.4746 285.252L98.6932 283.638L95.4666 281.017Z" stroke="#1A2E35" stroke-width="1.33333" stroke-miterlimit="10" stroke-linecap="round" stroke-linejoin="round"/>
<path d="M85.4407 295.328L86.206 302.829" stroke="#1A2E35" stroke-width="1.33333" stroke-miterlimit="10" stroke-linecap="round" stroke-linejoin="round"/>
<path d="M87.4314 295.174L88.0434 301.757" stroke="#1A2E35" stroke-width="1.33333" stroke-miterlimit="10" stroke-linecap="round" stroke-linejoin="round"/>
<path d="M120.877 270.73L93.8521 281.218L97.4827 285.453C97.4827 285.453 115.633 282.428 119.063 281.218C122.491 280.008 126.928 279.404 127.533 275.976C128.137 272.545 125.717 269.117 125.717 269.117" fill="#4285F4"/>
<path d="M120.877 270.73L93.8521 281.218L97.4827 285.453C97.4827 285.453 115.633 282.428 119.063 281.218C122.491 280.008 126.928 279.404 127.533 275.976C128.137 272.545 125.717 269.117 125.717 269.117" stroke="#1A2E35" stroke-width="1.33333" stroke-miterlimit="10" stroke-linecap="round" stroke-linejoin="round"/>
</svg>
