<svg width="555" height="527" viewBox="0 0 555 527" fill="none" xmlns="http://www.w3.org/2000/svg">
<path d="M13.8965 204.052C13.8965 204.052 -6.9142 295.854 53.2538 376.356C113.42 456.857 217.591 488.672 301.339 516.673C385.084 544.676 463.154 513.496 492.052 443.118C520.95 372.741 461.395 334.334 447.714 242.073C434.032 149.812 444.296 123.334 382.838 52.7529C321.378 -17.8284 196.211 -16.9832 112.052 54.5155C27.8925 126.016 13.8965 204.052 13.8965 204.052Z" fill="#E4EDF7"/>
<g opacity="0.699997">
<g opacity="0.699997">
<path opacity="0.699997" d="M13.8965 204.052C13.8965 204.052 -6.9142 295.854 53.2538 376.356C113.42 456.857 217.591 488.672 301.339 516.673C385.084 544.676 463.154 513.496 492.052 443.118C520.95 372.741 461.395 334.334 447.714 242.073C434.032 149.812 444.296 123.334 382.838 52.7529C321.378 -17.8285 196.211 -16.9832 112.052 54.5155C27.8925 126.016 13.8965 204.052 13.8965 204.052Z" fill="white"/>
</g>
</g>
<path d="M299.512 167.971H231.185V73.6147H299.512V167.971Z" stroke="#1A2E35" stroke-width="1.33333" stroke-miterlimit="10" stroke-linecap="round" stroke-linejoin="round"/>
<path d="M293.817 161.084H236.879V80.5H293.817V161.084Z" stroke="#1A2E35" stroke-width="1.33333" stroke-miterlimit="10" stroke-linecap="round" stroke-linejoin="round"/>
<path d="M293.752 110.597H237.075V103.276H293.752V110.597Z" stroke="#1A2E35" stroke-width="1.33333" stroke-miterlimit="10" stroke-linecap="round" stroke-linejoin="round"/>
<path d="M299.512 465.673H231.185V371.319H299.512V465.673Z" stroke="#1A2E35" stroke-width="1.33333" stroke-miterlimit="10" stroke-linecap="round" stroke-linejoin="round"/>
<path d="M293.817 458.788H236.879V378.204H293.817V458.788Z" stroke="#1A2E35" stroke-width="1.33333" stroke-miterlimit="10" stroke-linecap="round" stroke-linejoin="round"/>
<path d="M293.752 408.301H237.075V400.98H293.752V408.301Z" stroke="#1A2E35" stroke-width="1.33333" stroke-miterlimit="10" stroke-linecap="round" stroke-linejoin="round"/>
<path d="M66.3828 439.169H38.6895V426.312H66.3828V439.169Z" stroke="#1A2E35" stroke-width="1.33333" stroke-miterlimit="10" stroke-linecap="round" stroke-linejoin="round"/>
<path d="M98.032 439.169H70.3386V426.312H98.032V439.169Z" stroke="#1A2E35" stroke-width="1.33333" stroke-miterlimit="10" stroke-linecap="round" stroke-linejoin="round"/>
<path d="M83.196 455.264H55.5027V442.405H83.196V455.264Z" stroke="#1A2E35" stroke-width="1.33333" stroke-miterlimit="10" stroke-linecap="round" stroke-linejoin="round"/>
<path d="M246.148 233.455H218.455V220.597H246.148V233.455Z" stroke="#1A2E35" stroke-width="1.33333" stroke-miterlimit="10" stroke-linecap="round" stroke-linejoin="round"/>
<path d="M277.797 233.455H250.104V220.597H277.797V233.455Z" stroke="#1A2E35" stroke-width="1.33333" stroke-miterlimit="10" stroke-linecap="round" stroke-linejoin="round"/>
<path d="M262.963 249.549H235.268V236.692H262.963V249.549Z" stroke="#1A2E35" stroke-width="1.33333" stroke-miterlimit="10" stroke-linecap="round" stroke-linejoin="round"/>
<path d="M323.407 53.9934H295.713V41.1361H323.407V53.9934Z" stroke="#1A2E35" stroke-width="1.33333" stroke-miterlimit="10" stroke-linecap="round" stroke-linejoin="round"/>
<path d="M400.937 452.42H373.244V439.563H400.937V452.42Z" stroke="#1A2E35" stroke-width="1.33333" stroke-miterlimit="10" stroke-linecap="round" stroke-linejoin="round"/>
<path d="M403.409 93.3187H375.715V80.46H403.409V93.3187Z" stroke="#1A2E35" stroke-width="1.33333" stroke-miterlimit="10" stroke-linecap="round" stroke-linejoin="round"/>
<path d="M435.057 93.3187H407.364V80.46H435.057V93.3187Z" stroke="#1A2E35" stroke-width="1.33333" stroke-miterlimit="10" stroke-linecap="round" stroke-linejoin="round"/>
<path d="M420.223 109.413H392.528V96.5546H420.223V109.413Z" stroke="#1A2E35" stroke-width="1.33333" stroke-miterlimit="10" stroke-linecap="round" stroke-linejoin="round"/>
<path d="M460.905 439.169H433.211V426.312H460.905V439.169Z" stroke="#1A2E35" stroke-width="1.33333" stroke-miterlimit="10" stroke-linecap="round" stroke-linejoin="round"/>
<path d="M477.719 455.264H450.024V442.405H477.719V455.264Z" stroke="#1A2E35" stroke-width="1.33333" stroke-miterlimit="10" stroke-linecap="round" stroke-linejoin="round"/>
<path d="M141.187 93.3187H113.493V80.46H141.187V93.3187Z" stroke="#1A2E35" stroke-width="1.33333" stroke-miterlimit="10" stroke-linecap="round" stroke-linejoin="round"/>
<path d="M172.836 93.3187H145.143V80.46H172.836V93.3187Z" stroke="#1A2E35" stroke-width="1.33333" stroke-miterlimit="10" stroke-linecap="round" stroke-linejoin="round"/>
<path d="M158 109.413H130.307V96.5546H158V109.413Z" stroke="#1A2E35" stroke-width="1.33333" stroke-miterlimit="10" stroke-linecap="round" stroke-linejoin="round"/>
<path d="M509.437 368.22H447.26V128.013H509.437V368.22Z" stroke="#1A2E35" stroke-width="1.33333" stroke-miterlimit="10" stroke-linecap="round" stroke-linejoin="round"/>
<path d="M505.147 361.297H451.551V135.465H505.147V361.297Z" stroke="#1A2E35" stroke-width="1.33333" stroke-miterlimit="10" stroke-linecap="round" stroke-linejoin="round"/>
<path d="M457.938 237.334V249.63" stroke="#1A2E35" stroke-width="1.33333" stroke-miterlimit="10" stroke-linecap="round" stroke-linejoin="round"/>
<path d="M457.938 135.589V229.334" stroke="#1A2E35" stroke-width="1.33333" stroke-miterlimit="10" stroke-linecap="round" stroke-linejoin="round"/>
<path d="M465.938 161.779V308.001" stroke="#1A2E35" stroke-width="1.33333" stroke-miterlimit="10" stroke-linecap="round" stroke-linejoin="round"/>
<path d="M465.938 135.589V153.779" stroke="#1A2E35" stroke-width="1.33333" stroke-miterlimit="10" stroke-linecap="round" stroke-linejoin="round"/>
<path d="M473.938 255.556V259.556" stroke="#1A2E35" stroke-width="1.33333" stroke-miterlimit="10" stroke-linecap="round" stroke-linejoin="round"/>
<path d="M473.938 135.589V247.557" stroke="#1A2E35" stroke-width="1.33333" stroke-miterlimit="10" stroke-linecap="round" stroke-linejoin="round"/>
<path d="M481.938 135.589V249.63" stroke="#1A2E35" stroke-width="1.33333" stroke-miterlimit="10" stroke-linecap="round" stroke-linejoin="round"/>
<path d="M489.938 135.589V249.63" stroke="#1A2E35" stroke-width="1.33333" stroke-miterlimit="10" stroke-linecap="round" stroke-linejoin="round"/>
<path d="M497.938 180.889V270.223" stroke="#1A2E35" stroke-width="1.33333" stroke-miterlimit="10" stroke-linecap="round" stroke-linejoin="round"/>
<path d="M497.938 135.589V172.446" stroke="#1A2E35" stroke-width="1.33333" stroke-miterlimit="10" stroke-linecap="round" stroke-linejoin="round"/>
<path d="M441.937 128.013H327.448V368.017H441.937V128.013Z" stroke="#1A2E35" stroke-width="1.33333" stroke-miterlimit="10" stroke-linecap="round" stroke-linejoin="round"/>
<path d="M387.66 209.428H433.456V172.961H387.66V209.428Z" stroke="#1A2E35" stroke-width="1.33333" stroke-miterlimit="10" stroke-linecap="round" stroke-linejoin="round"/>
<path d="M387.66 250.983H433.456V214.516H387.66V250.983Z" stroke="#1A2E35" stroke-width="1.33333" stroke-miterlimit="10" stroke-linecap="round" stroke-linejoin="round"/>
<path d="M433.456 297.627H387.66V334.095H433.456V297.627Z" stroke="#1A2E35" stroke-width="1.33333" stroke-miterlimit="10" stroke-linecap="round" stroke-linejoin="round"/>
<path d="M387.66 292.537H433.456V256.071H387.66V292.537Z" stroke="#1A2E35" stroke-width="1.33333" stroke-miterlimit="10" stroke-linecap="round" stroke-linejoin="round"/>
<path d="M387.66 167.872H433.456V135.645H387.66V167.872Z" stroke="#1A2E35" stroke-width="1.33333" stroke-miterlimit="10" stroke-linecap="round" stroke-linejoin="round"/>
<path d="M381.724 135.645H335.928V167.872H381.724V135.645Z" stroke="#1A2E35" stroke-width="1.33333" stroke-miterlimit="10" stroke-linecap="round" stroke-linejoin="round"/>
<path d="M381.724 172.961H335.928V209.428H381.724V172.961Z" stroke="#1A2E35" stroke-width="1.33333" stroke-miterlimit="10" stroke-linecap="round" stroke-linejoin="round"/>
<path d="M387.66 368.017H433.456V339.183H387.66V368.017Z" stroke="#1A2E35" stroke-width="1.33333" stroke-miterlimit="10" stroke-linecap="round" stroke-linejoin="round"/>
<path d="M381.724 339.183H335.928V368.017H381.724V339.183Z" stroke="#1A2E35" stroke-width="1.33333" stroke-miterlimit="10" stroke-linecap="round" stroke-linejoin="round"/>
<path d="M381.724 214.516H335.928V250.983H381.724V214.516Z" stroke="#1A2E35" stroke-width="1.33333" stroke-miterlimit="10" stroke-linecap="round" stroke-linejoin="round"/>
<path d="M381.724 297.627H335.928V334.095H381.724V297.627Z" stroke="#1A2E35" stroke-width="1.33333" stroke-miterlimit="10" stroke-linecap="round" stroke-linejoin="round"/>
<path d="M381.724 256.072H335.928V292.539H381.724V256.072Z" stroke="#1A2E35" stroke-width="1.33333" stroke-miterlimit="10" stroke-linecap="round" stroke-linejoin="round"/>
<path d="M477.269 328.465C477.269 328.465 476.056 324.519 472.516 323.103C470.056 322.119 467.223 322.377 464.675 322.821C459.924 323.646 455.779 325.535 451.275 327.15C451.275 327.15 453.196 326.441 461.085 330.285C463.992 331.701 467.315 332.799 470.637 332.725C473.307 332.665 477.397 331.905 477.269 328.465Z" fill="#34A853"/>
<path d="M477.698 316.875C477.698 316.875 477.675 312.747 474.695 310.37C472.623 308.716 469.836 308.144 467.27 307.834C462.483 307.251 457.968 307.862 453.191 308.107C453.191 308.107 455.235 307.984 461.678 313.943C464.051 316.138 466.915 318.15 470.118 319.038C472.691 319.752 476.826 320.206 477.698 316.875Z" fill="#34A853"/>
<path d="M485.854 332.2C485.854 332.2 482.635 329.618 482.623 325.804C482.615 323.155 483.899 320.616 485.251 318.41C487.77 314.299 491.054 311.143 494.215 307.552C494.215 307.552 492.849 309.076 493.513 317.828C493.758 321.051 493.553 324.546 492.259 327.607C491.219 330.066 489.005 333.587 485.854 332.2Z" fill="#34A853"/>
<path d="M497.254 338.539C497.254 338.539 496.799 334.436 499.484 331.73C501.351 329.847 504.052 328.958 506.567 328.351C511.254 327.22 515.808 327.304 520.583 326.995C520.583 326.995 518.538 327.11 512.828 333.774C510.724 336.228 508.112 338.558 505.034 339.81C502.559 340.818 498.504 341.746 497.254 338.539Z" fill="#34A853"/>
<path d="M496.508 323.917C496.508 323.917 492.418 323.354 490.45 320.089C489.082 317.819 488.88 314.982 488.908 312.394C488.957 307.573 490.153 303.178 491.021 298.474C491.021 298.474 490.633 300.485 495.697 307.651C497.562 310.291 499.181 313.393 499.644 316.685C500.014 319.33 499.924 323.489 496.508 323.917Z" fill="#34A853"/>
<path d="M508.275 316.574C508.275 316.574 511.216 319.47 515.004 319.036C517.636 318.733 520.008 317.162 522.04 315.562C525.829 312.58 528.58 308.95 531.779 305.39C531.779 305.39 530.423 306.928 521.655 307.289C518.424 307.422 514.979 308.033 512.089 309.676C509.768 310.996 506.529 313.606 508.275 316.574Z" fill="#34A853"/>
<path d="M504.87 313.711C504.87 313.711 508.976 314.124 511.655 311.41C513.516 309.524 514.38 306.815 514.96 304.294C516.043 299.595 515.911 295.042 516.172 290.264C516.172 290.264 516.078 292.31 509.474 298.09C507.04 300.218 504.738 302.854 503.516 305.946C502.536 308.428 501.65 312.492 504.87 313.711Z" fill="#34A853"/>
<path d="M490.208 353.678L483.122 336.232L474.943 316.06" stroke="#1A2E35" stroke-width="1.33333" stroke-miterlimit="10" stroke-linecap="round" stroke-linejoin="round"/>
<path d="M491.844 350.68L498.93 326.418L506.564 311.425" stroke="#1A2E35" stroke-width="1.33333" stroke-miterlimit="10" stroke-linecap="round" stroke-linejoin="round"/>
<path d="M494.57 341.138L501.657 337.05" stroke="#1A2E35" stroke-width="1.33333" stroke-miterlimit="10" stroke-linecap="round" stroke-linejoin="round"/>
<path d="M498.931 326.418L495.388 318.513" stroke="#1A2E35" stroke-width="1.33333" stroke-miterlimit="10" stroke-linecap="round" stroke-linejoin="round"/>
<path d="M503.366 318.552L512.015 314.696" stroke="#1A2E35" stroke-width="1.33333" stroke-miterlimit="10" stroke-linecap="round" stroke-linejoin="round"/>
<path d="M484.483 339.503L487.482 327.508" stroke="#1A2E35" stroke-width="1.33333" stroke-miterlimit="10" stroke-linecap="round" stroke-linejoin="round"/>
<path d="M480.507 330.387L473.58 326.691" stroke="#1A2E35" stroke-width="1.33333" stroke-miterlimit="10" stroke-linecap="round" stroke-linejoin="round"/>
<path d="M497.282 362.401H484.497L481.757 347.953H500.022L497.282 362.401Z" fill="#1A2E35"/>
<path d="M497.282 362.401H484.497L481.757 347.953H500.022L497.282 362.401Z" stroke="#1A2E35" stroke-width="1.33333" stroke-miterlimit="10" stroke-linecap="round" stroke-linejoin="round"/>
<path d="M459.564 238.442C459.564 238.442 449.135 242.393 446.447 243.026C443.76 243.658 439.183 232.827 435.864 225.717C432.544 218.605 430.169 220.749 428.573 220.962C426.977 221.174 432.381 237.81 433.172 243.815C433.963 249.821 435.543 257.09 440.916 255.51C446.289 253.93 460.828 240.813 462.092 238.601C463.357 236.387 459.564 238.442 459.564 238.442Z" fill="white"/>
<path d="M459.564 238.442C459.564 238.442 449.135 242.393 446.447 243.026C443.76 243.658 439.183 232.827 435.864 225.717C432.544 218.605 430.169 220.749 428.573 220.962C426.977 221.174 432.381 237.81 433.172 243.815C433.963 249.821 435.543 257.09 440.916 255.51C446.289 253.93 460.828 240.813 462.092 238.601C463.357 236.387 459.564 238.442 459.564 238.442Z" stroke="#1A2E35" stroke-width="1.33333" stroke-miterlimit="10" stroke-linecap="round" stroke-linejoin="round"/>
<path d="M393.19 226.273C393.19 226.273 390.502 226.273 388.449 228.012C386.394 229.749 370.591 261.041 370.906 262.305C371.222 263.569 372.487 263.728 376.597 261.673C380.705 259.619 394.454 241.603 395.402 237.968C396.35 234.333 395.243 227.064 393.19 226.273Z" fill="white"/>
<path d="M393.19 226.273C393.19 226.273 390.502 226.273 388.449 228.012C386.394 229.749 370.591 261.041 370.906 262.305C371.222 263.569 372.487 263.728 376.597 261.673C380.705 259.619 394.454 241.603 395.402 237.968C396.35 234.333 395.243 227.064 393.19 226.273Z" stroke="#1A2E35" stroke-width="1.33333" stroke-miterlimit="10" stroke-linecap="round" stroke-linejoin="round"/>
<path d="M402.273 359.594C402.273 359.594 402.892 364.535 404.281 367.006C405.671 369.475 408.604 369.167 408.757 366.85C408.912 364.535 405.671 359.131 405.671 359.131C405.671 359.131 403.817 357.896 402.273 359.594Z" fill="white"/>
<path d="M402.273 359.594C402.273 359.594 402.892 364.535 404.281 367.006C405.671 369.475 408.604 369.167 408.757 366.85C408.912 364.535 405.671 359.131 405.671 359.131C405.671 359.131 403.817 357.896 402.273 359.594Z" stroke="#1A2E35" stroke-width="1.33333" stroke-miterlimit="10" stroke-linecap="round" stroke-linejoin="round"/>
<path d="M419.243 359.807C419.243 359.807 417.081 362.894 418.007 363.975C418.934 365.057 420.633 364.283 422.022 365.365C423.411 366.446 426.345 367.373 428.506 366.754C430.667 366.137 428.815 365.211 426.962 363.667C425.109 362.122 423.566 360.425 423.103 359.653C422.639 358.881 419.861 358.109 419.243 359.807Z" fill="white"/>
<path d="M419.243 359.807C419.243 359.807 417.081 362.894 418.007 363.975C418.934 365.057 420.633 364.283 422.022 365.365C423.411 366.446 426.345 367.373 428.506 366.754C430.667 366.137 428.815 365.211 426.962 363.667C425.109 362.122 423.566 360.425 423.103 359.653C422.639 358.881 419.861 358.109 419.243 359.807Z" stroke="#1A2E35" stroke-width="1.33333" stroke-miterlimit="10" stroke-linecap="round" stroke-linejoin="round"/>
<path d="M397.178 279.465C397.178 279.465 401.348 303.395 402.273 316.365C403.201 329.333 401.501 358.359 402.273 359.594C403.045 360.829 404.744 361.138 406.134 359.749C407.524 358.359 415.324 326.942 415.941 317.371C416.558 307.798 414.317 288.214 416.169 285.279C418.022 282.346 418.845 283.015 418.845 283.015C418.845 283.015 424.528 308.673 424.528 312.069C424.528 315.466 424.373 315.466 425.298 316.547L426.225 317.627C426.225 317.627 423.257 342.669 421.405 350.234C419.552 357.799 418.472 359.497 419.552 360.579C420.633 361.659 422.176 361.505 423.412 360.27C424.648 359.035 438.093 319.915 439.637 313.585C441.181 307.255 433.308 268.657 433.308 268.657C433.308 268.657 433.616 266.033 422.653 268.194C411.692 270.355 403.973 272.67 400.576 276.067L397.178 279.465Z" fill="#DF382B"/>
<path d="M397.178 279.465C397.178 279.465 401.348 303.395 402.273 316.365C403.201 329.333 401.501 358.359 402.273 359.594C403.045 360.829 404.744 361.138 406.134 359.749C407.524 358.359 415.324 326.942 415.941 317.371C416.558 307.798 414.317 288.214 416.169 285.279C418.022 282.346 418.845 283.015 418.845 283.015C418.845 283.015 424.528 308.673 424.528 312.069C424.528 315.466 424.373 315.466 425.298 316.547L426.225 317.627C426.225 317.627 423.257 342.669 421.405 350.234C419.552 357.799 418.472 359.497 419.552 360.579C420.633 361.659 422.176 361.505 423.412 360.27C424.648 359.035 438.093 319.915 439.637 313.585C441.181 307.255 433.308 268.657 433.308 268.657C433.308 268.657 433.616 266.033 422.653 268.194C411.692 270.355 403.973 272.67 400.576 276.067L397.178 279.465Z" stroke="#1A2E35" stroke-width="1.33333" stroke-miterlimit="10" stroke-linecap="round" stroke-linejoin="round"/>
<path d="M438.941 241.454C441.108 240.968 442.985 240.142 444.02 239.932C442.135 236.172 438.413 229.37 436.648 225.325C434.588 220.6 431.753 218.848 430.157 219.06C430.157 219.06 419.103 218.633 416.633 219.097C416.633 219.097 416.637 219.162 416.649 219.274L409.993 219.56L408.637 220.053L408.604 219.714C405.516 219.405 391.775 225.426 391.775 225.426C391.775 225.426 389.6 227.037 388.449 228.012C387.416 228.885 382.917 237.212 378.733 245.445C380.524 245.701 382.571 246.248 384.468 247.402C385.911 248.281 387.017 248.949 387.9 249.48C390.215 246.466 392.337 243.469 393.741 241.202L398.259 277.457L436.085 276.376L433.188 245.348C433.989 244.517 436.687 241.962 438.941 241.454Z" fill="#4285F4"/>
<path d="M438.941 241.454C441.108 240.968 442.985 240.142 444.02 239.932C442.135 236.172 438.413 229.37 436.648 225.325C434.588 220.6 431.753 218.848 430.157 219.06C430.157 219.06 419.103 218.633 416.633 219.097C416.633 219.097 416.637 219.162 416.649 219.274L409.993 219.56L408.637 220.053L408.604 219.714C405.516 219.405 391.775 225.426 391.775 225.426C391.775 225.426 389.6 227.037 388.449 228.012C387.416 228.885 382.917 237.212 378.733 245.445C380.524 245.701 382.571 246.248 384.468 247.402C385.911 248.281 387.017 248.949 387.9 249.48C390.215 246.466 392.337 243.469 393.741 241.202L398.259 277.457L436.085 276.376L433.188 245.348C433.989 244.517 436.687 241.962 438.941 241.454Z" stroke="#1A2E35" stroke-width="1.33333" stroke-miterlimit="10" stroke-linecap="round" stroke-linejoin="round"/>
<path d="M407.234 215.561C407.234 215.561 404.729 214.65 401.314 211.234C397.898 207.82 398.126 202.128 398.582 199.85C399.038 197.574 399.553 193.958 402.058 191.909C404.562 189.86 412.698 189.149 419.301 191.426C425.904 193.704 419.301 193.93 419.301 193.93C419.301 193.93 424.993 196.892 423.4 197.802C421.806 198.713 419.985 198.713 419.985 198.713C419.985 198.713 420.894 201.9 419.074 202.128C417.253 202.356 418.618 210.324 415.885 211.918C413.153 213.512 407.234 215.561 407.234 215.561Z" fill="#FF1778"/>
<path d="M407.234 215.561C407.234 215.561 404.729 214.65 401.314 211.234C397.898 207.82 398.126 202.128 398.582 199.85C399.038 197.574 399.553 193.958 402.058 191.909C404.562 189.86 412.698 189.149 419.301 191.426C425.904 193.704 419.301 193.93 419.301 193.93C419.301 193.93 424.993 196.892 423.4 197.802C421.806 198.713 419.985 198.713 419.985 198.713C419.985 198.713 420.894 201.9 419.074 202.128C417.253 202.356 418.618 210.324 415.885 211.918C413.153 213.512 407.234 215.561 407.234 215.561Z" stroke="#1A2E35" stroke-width="1.33333" stroke-miterlimit="10" stroke-linecap="round" stroke-linejoin="round"/>
<path d="M404.047 208.503C404.047 208.503 401.997 205.999 401.769 209.186C401.541 212.374 404.957 213.513 404.957 213.513L404.047 208.503Z" fill="white"/>
<path d="M404.047 208.503C404.047 208.503 401.997 205.999 401.769 209.186C401.541 212.374 404.957 213.513 404.957 213.513L404.047 208.503Z" stroke="#1A2E35" stroke-width="1.33333" stroke-miterlimit="10" stroke-linecap="round" stroke-linejoin="round"/>
<path d="M417.733 206.654C417.733 206.654 419.182 203.762 420.104 206.821C421.025 209.881 417.942 211.741 417.942 211.741L417.733 206.654Z" fill="white"/>
<path d="M417.733 206.654C417.733 206.654 419.182 203.762 420.104 206.821C421.025 209.881 417.942 211.741 417.942 211.741L417.733 206.654Z" stroke="#1A2E35" stroke-width="1.33333" stroke-miterlimit="10" stroke-linecap="round" stroke-linejoin="round"/>
<path d="M407.832 214.156C407.832 214.156 408.757 217.707 408.757 221.259C408.757 224.81 412.927 228.36 414.161 228.515C415.397 228.67 417.404 224.963 417.095 222.031C416.787 219.098 415.243 213.127 415.243 213.127C415.243 213.127 412.309 211.068 407.832 214.156Z" fill="white"/>
<path d="M407.832 214.156C407.832 214.156 408.757 217.707 408.757 221.259C408.757 224.81 412.927 228.36 414.161 228.515C415.397 228.67 417.404 224.963 417.095 222.031C416.787 219.098 415.243 213.127 415.243 213.127C415.243 213.127 412.309 211.068 407.832 214.156V214.156Z" stroke="#1A2E35" stroke-width="1.33333" stroke-miterlimit="10" stroke-linecap="round" stroke-linejoin="round"/>
<path d="M407.167 200.309C405.111 202.419 403.447 203.879 403.447 203.879C403.447 203.879 404.192 212.063 405.233 214.891C406.275 217.719 411.185 220.843 413.416 220.099C415.648 219.355 418.029 217.273 418.327 213.85C418.625 210.427 416.988 201.797 416.244 200.606C412.697 199.623 409.967 199.623 408.372 197.346C408.372 197.346 409.052 198.374 407.167 200.309Z" fill="white"/>
<path d="M407.167 200.309C405.111 202.419 403.447 203.879 403.447 203.879C403.447 203.879 404.192 212.063 405.233 214.891C406.275 217.719 411.185 220.843 413.416 220.099C415.648 219.355 418.029 217.273 418.327 213.85C418.625 210.427 416.988 201.797 416.244 200.606C412.697 199.623 409.967 199.623 408.372 197.346C408.372 197.346 409.052 198.374 407.167 200.309Z" stroke="#1A2E35" stroke-width="1.33333" stroke-miterlimit="10" stroke-linecap="round" stroke-linejoin="round"/>
<path d="M423.66 243.55C421.573 243.699 419.692 244.55 418.095 245.806C418.095 245.806 418.017 245.877 417.897 245.982C417.736 246.117 417.569 246.239 417.415 246.383C416.285 247.302 413.803 249.129 410.527 250.373C407.193 251.639 402.892 251.039 400.859 250.638C400.793 250.626 400.729 250.609 400.663 250.598C400.057 250.474 399.692 250.375 399.692 250.375L399.733 250.499C399.059 250.441 398.377 250.414 397.687 250.463C389.491 251.05 383.405 259.309 384.092 268.907C384.78 278.506 391.981 285.811 400.177 285.223C403.813 284.963 407.029 283.189 409.435 280.481C411.996 277.597 414.909 274.994 418.2 272.969C419.885 271.933 421.668 271.049 423.527 270.369C425.308 269.717 427.397 269.747 429.081 268.943C430.548 268.245 431.825 267.189 432.851 265.934C435.124 263.155 436.1 259.462 435.845 255.911C435.324 248.639 429.868 243.106 423.66 243.55Z" fill="#1A2E35"/>
<path d="M423.66 243.55C421.573 243.699 419.692 244.55 418.095 245.806C418.095 245.806 418.017 245.877 417.897 245.982C417.736 246.117 417.569 246.239 417.415 246.383C416.285 247.302 413.803 249.129 410.527 250.373C407.193 251.639 402.892 251.039 400.859 250.638C400.793 250.626 400.729 250.609 400.663 250.598C400.057 250.474 399.692 250.375 399.692 250.375L399.733 250.499C399.059 250.441 398.377 250.414 397.687 250.463C389.491 251.05 383.405 259.309 384.092 268.907C384.78 278.506 391.981 285.811 400.177 285.223C403.813 284.963 407.029 283.189 409.435 280.481C411.996 277.597 414.909 274.994 418.2 272.969C419.885 271.933 421.668 271.049 423.527 270.369C425.308 269.717 427.397 269.747 429.081 268.943C430.548 268.245 431.825 267.189 432.851 265.934C435.124 263.155 436.1 259.462 435.845 255.911C435.324 248.639 429.868 243.106 423.66 243.55Z" stroke="#1A2E35" stroke-width="1.33333" stroke-miterlimit="10" stroke-linecap="round" stroke-linejoin="round"/>
<path d="M421.19 239.227C419.102 239.377 417.222 240.227 415.624 241.483C415.624 241.483 415.546 241.554 415.426 241.659C415.266 241.794 415.098 241.917 414.944 242.061C413.816 242.979 411.333 244.806 408.057 246.05C404.724 247.317 400.422 246.717 398.389 246.314C398.324 246.303 398.258 246.286 398.192 246.275C397.588 246.15 397.222 246.053 397.222 246.053L397.264 246.177C396.589 246.118 395.908 246.091 395.217 246.141C387.021 246.727 380.936 254.986 381.622 264.585C382.31 274.183 389.512 281.489 397.708 280.901C401.342 280.641 404.56 278.866 406.965 276.158C409.525 273.274 412.44 270.671 415.73 268.646C417.416 267.609 419.197 266.725 421.057 266.046C422.838 265.394 424.926 265.425 426.612 264.621C428.078 263.922 429.354 262.866 430.381 261.611C432.654 258.833 433.629 255.139 433.376 251.589C432.854 244.317 427.398 238.783 421.19 239.227Z" fill="#34A853"/>
<path d="M421.19 239.227C419.102 239.377 417.222 240.227 415.624 241.483C415.624 241.483 415.546 241.554 415.426 241.659C415.266 241.794 415.098 241.917 414.944 242.061C413.816 242.979 411.333 244.806 408.057 246.05C404.724 247.317 400.422 246.717 398.389 246.314C398.324 246.303 398.258 246.286 398.192 246.275C397.588 246.15 397.222 246.053 397.222 246.053L397.264 246.177C396.589 246.118 395.908 246.091 395.217 246.141C387.021 246.727 380.936 254.986 381.622 264.585C382.31 274.183 389.512 281.489 397.708 280.901C401.342 280.641 404.56 278.866 406.965 276.158C409.525 273.274 412.44 270.671 415.73 268.646C417.416 267.609 419.197 266.725 421.057 266.046C422.838 265.394 424.926 265.425 426.612 264.621C428.078 263.922 429.354 262.866 430.381 261.611C432.654 258.833 433.629 255.139 433.376 251.589C432.854 244.317 427.398 238.783 421.19 239.227Z" stroke="#1A2E35" stroke-width="1.33333" stroke-miterlimit="10" stroke-linecap="round" stroke-linejoin="round"/>
<path d="M401.232 271.165L396.453 257.391C396.389 257.207 396.486 257.006 396.67 256.942L397.462 256.667C397.648 256.603 397.848 256.701 397.912 256.886L402.69 270.659C402.754 270.843 402.657 271.045 402.473 271.109L401.681 271.383C401.497 271.446 401.296 271.349 401.232 271.165Z" fill="#1A2E35"/>
<path d="M401.232 271.165L396.453 257.391C396.389 257.207 396.486 257.006 396.67 256.942L397.462 256.667C397.648 256.603 397.848 256.701 397.912 256.886L402.69 270.659C402.754 270.843 402.657 271.045 402.473 271.109L401.681 271.383C401.497 271.446 401.296 271.349 401.232 271.165Z" stroke="#1A2E35" stroke-width="1.33333" stroke-miterlimit="10" stroke-linecap="round" stroke-linejoin="round"/>
<path d="M401.501 259.702C401.501 259.702 404.127 268.811 406.596 269.738C409.067 270.665 415.397 266.805 417.713 264.489C420.029 262.173 420.337 260.011 420.337 260.011C420.337 260.011 418.023 262.327 414.161 263.099C410.303 263.871 407.677 260.319 406.752 258.158C405.824 255.997 402.583 255.379 401.501 259.702Z" fill="#34A853"/>
<path d="M401.501 259.702C401.501 259.702 404.127 268.811 406.596 269.738C409.067 270.665 415.397 266.805 417.713 264.489C420.029 262.173 420.337 260.011 420.337 260.011C420.337 260.011 418.023 262.327 414.161 263.099C410.303 263.871 407.677 260.319 406.752 258.158C405.824 255.997 402.583 255.379 401.501 259.702Z" stroke="#1A2E35" stroke-width="1.33333" stroke-miterlimit="10" stroke-linecap="round" stroke-linejoin="round"/>
<path d="M419.103 256.615C419.103 253.8 416.821 251.52 414.008 251.52C411.193 251.52 408.912 253.8 408.912 256.615C408.912 259.428 411.193 261.709 414.008 261.709C416.821 261.709 419.103 259.428 419.103 256.615Z" fill="#1A2E35"/>
<path d="M419.103 256.615C419.103 253.8 416.821 251.52 414.008 251.52C411.193 251.52 408.912 253.8 408.912 256.615C408.912 259.428 411.193 261.709 414.008 261.709C416.821 261.709 419.103 259.428 419.103 256.615Z" stroke="#1A2E35" stroke-width="1.33333" stroke-miterlimit="10" stroke-linecap="round" stroke-linejoin="round"/>
<path d="M420.184 250.747L421.726 255.689L469.848 230.134L468.149 227.046L420.184 250.747Z" fill="#34A853"/>
<path d="M420.184 250.747L421.726 255.689L469.848 230.134L468.149 227.046L420.184 250.747Z" stroke="#1A2E35" stroke-width="1.33333" stroke-miterlimit="10" stroke-linecap="round" stroke-linejoin="round"/>
<path d="M476.103 232.55L475.043 230.126L475.609 229.878L476.669 232.302L476.103 232.55Z" fill="white"/>
<path d="M476.103 232.55L475.043 230.126L475.609 229.878L476.669 232.302L476.103 232.55Z" stroke="#1A2E35" stroke-width="1.33333" stroke-miterlimit="10" stroke-linecap="round" stroke-linejoin="round"/>
<path d="M480.648 230.807L479.588 228.383L480.155 228.135L481.216 230.559L480.648 230.807Z" fill="white"/>
<path d="M480.648 230.807L479.588 228.383L480.155 228.135L481.216 230.559L480.648 230.807Z" stroke="#1A2E35" stroke-width="1.33333" stroke-miterlimit="10" stroke-linecap="round" stroke-linejoin="round"/>
<path d="M484.816 228.307L483.756 225.883L484.323 225.634L485.383 228.058L484.816 228.307Z" fill="white"/>
<path d="M484.816 228.307L483.756 225.883L484.323 225.634L485.383 228.058L484.816 228.307Z" stroke="#1A2E35" stroke-width="1.33333" stroke-miterlimit="10" stroke-linecap="round" stroke-linejoin="round"/>
<path d="M468.148 227.046L470.306 224.648L485.162 217.378C485.162 217.378 487.216 218.642 488.006 220.223C488.795 221.803 489.27 223.383 488.954 224.174C488.638 224.963 478.207 228.756 476.627 229.704C475.047 230.652 474.256 230.811 473.466 230.495C472.676 230.179 469.847 230.134 469.847 230.134L468.148 227.046Z" fill="#34A853"/>
<path d="M468.148 227.046L470.306 224.648L485.162 217.378C485.162 217.378 487.216 218.642 488.006 220.223C488.795 221.803 489.27 223.383 488.954 224.174C488.638 224.963 478.207 228.756 476.627 229.704C475.047 230.652 474.256 230.811 473.466 230.495C472.676 230.179 469.847 230.134 469.847 230.134L468.148 227.046Z" stroke="#1A2E35" stroke-width="1.33333" stroke-miterlimit="10" stroke-linecap="round" stroke-linejoin="round"/>
<path d="M478.03 233.221C478.03 232.539 477.477 231.985 476.795 231.985C476.114 231.985 475.559 232.539 475.559 233.221C475.559 233.903 476.114 234.456 476.795 234.456C477.477 234.456 478.03 233.903 478.03 233.221Z" fill="white"/>
<path d="M478.03 233.221C478.03 232.539 477.477 231.985 476.795 231.985C476.114 231.985 475.559 232.539 475.559 233.221C475.559 233.903 476.114 234.456 476.795 234.456C477.477 234.456 478.03 233.903 478.03 233.221Z" stroke="#1A2E35" stroke-width="1.33333" stroke-miterlimit="10" stroke-linecap="round" stroke-linejoin="round"/>
<path d="M482.353 231.368C482.353 230.686 481.799 230.134 481.118 230.134C480.437 230.134 479.882 230.686 479.882 231.368C479.882 232.05 480.437 232.603 481.118 232.603C481.799 232.603 482.353 232.05 482.353 231.368Z" fill="white"/>
<path d="M482.353 231.368C482.353 230.686 481.799 230.134 481.118 230.134C480.437 230.134 479.882 230.686 479.882 231.368C479.882 232.05 480.437 232.603 481.118 232.603C481.799 232.603 482.353 232.05 482.353 231.368Z" stroke="#1A2E35" stroke-width="1.33333" stroke-miterlimit="10" stroke-linecap="round" stroke-linejoin="round"/>
<path d="M486.676 229.052C486.676 228.371 486.124 227.817 485.441 227.817C484.76 227.817 484.205 228.371 484.205 229.052C484.205 229.735 484.76 230.288 485.441 230.288C486.124 230.288 486.676 229.735 486.676 229.052Z" fill="white"/>
<path d="M486.676 229.052C486.676 228.371 486.124 227.817 485.441 227.817C484.76 227.817 484.205 228.371 484.205 229.052C484.205 229.735 484.76 230.288 485.441 230.288C486.124 230.288 486.676 229.735 486.676 229.052Z" stroke="#1A2E35" stroke-width="1.33333" stroke-miterlimit="10" stroke-linecap="round" stroke-linejoin="round"/>
<path d="M474.947 228.031C474.947 227.654 474.641 227.349 474.264 227.349C473.888 227.349 473.583 227.654 473.583 228.031C473.583 228.407 473.888 228.713 474.264 228.713C474.641 228.713 474.947 228.407 474.947 228.031Z" fill="white"/>
<path d="M474.947 228.031C474.947 227.654 474.641 227.349 474.264 227.349C473.888 227.349 473.583 227.654 473.583 228.031C473.583 228.407 473.888 228.713 474.264 228.713C474.641 228.713 474.947 228.407 474.947 228.031Z" stroke="#1A2E35" stroke-width="1.33333" stroke-miterlimit="10" stroke-linecap="round" stroke-linejoin="round"/>
<path d="M479.72 225.606C479.72 225.23 479.415 224.925 479.037 224.925C478.661 224.925 478.357 225.23 478.357 225.606C478.357 225.983 478.661 226.289 479.037 226.289C479.415 226.289 479.72 225.983 479.72 225.606Z" fill="white"/>
<path d="M479.72 225.606C479.72 225.23 479.415 224.925 479.037 224.925C478.661 224.925 478.357 225.23 478.357 225.606C478.357 225.983 478.661 226.289 479.037 226.289C479.415 226.289 479.72 225.983 479.72 225.606Z" stroke="#1A2E35" stroke-width="1.33333" stroke-miterlimit="10" stroke-linecap="round" stroke-linejoin="round"/>
<path d="M484.721 223.182C484.721 222.806 484.416 222.5 484.039 222.5C483.663 222.5 483.357 222.806 483.357 223.182C483.357 223.559 483.663 223.864 484.039 223.864C484.416 223.864 484.721 223.559 484.721 223.182Z" fill="white"/>
<path d="M484.721 223.182C484.721 222.806 484.416 222.5 484.039 222.5C483.663 222.5 483.357 222.806 483.357 223.182C483.357 223.559 483.663 223.864 484.039 223.864C484.416 223.864 484.721 223.559 484.721 223.182Z" stroke="#1A2E35" stroke-width="1.33333" stroke-miterlimit="10" stroke-linecap="round" stroke-linejoin="round"/>
<path d="M473.734 224.849C473.734 224.472 473.429 224.166 473.052 224.166C472.676 224.166 472.37 224.472 472.37 224.849C472.37 225.225 472.676 225.53 473.052 225.53C473.429 225.53 473.734 225.225 473.734 224.849Z" fill="white"/>
<path d="M473.734 224.849C473.734 224.472 473.429 224.166 473.052 224.166C472.676 224.166 472.37 224.472 472.37 224.849C472.37 225.225 472.676 225.53 473.052 225.53C473.429 225.53 473.734 225.225 473.734 224.849Z" stroke="#1A2E35" stroke-width="1.33333" stroke-miterlimit="10" stroke-linecap="round" stroke-linejoin="round"/>
<path d="M478.508 222.424C478.508 222.048 478.202 221.743 477.825 221.743C477.449 221.743 477.145 222.048 477.145 222.424C477.145 222.801 477.449 223.107 477.825 223.107C478.202 223.107 478.508 222.801 478.508 222.424Z" fill="white"/>
<path d="M478.508 222.424C478.508 222.048 478.202 221.743 477.825 221.743C477.449 221.743 477.145 222.048 477.145 222.424C477.145 222.801 477.449 223.107 477.825 223.107C478.202 223.107 478.508 222.801 478.508 222.424Z" stroke="#1A2E35" stroke-width="1.33333" stroke-miterlimit="10" stroke-linecap="round" stroke-linejoin="round"/>
<path d="M483.509 219.999C483.509 219.623 483.204 219.318 482.826 219.318C482.45 219.318 482.145 219.623 482.145 219.999C482.145 220.377 482.45 220.682 482.826 220.682C483.204 220.682 483.509 220.377 483.509 219.999Z" fill="white"/>
<path d="M483.509 219.999C483.509 219.623 483.204 219.318 482.826 219.318C482.45 219.318 482.145 219.623 482.145 219.999C482.145 220.377 482.45 220.682 482.826 220.682C483.204 220.682 483.509 220.377 483.509 219.999Z" stroke="#1A2E35" stroke-width="1.33333" stroke-miterlimit="10" stroke-linecap="round" stroke-linejoin="round"/>
<path d="M457.825 240.971L458.773 236.072C458.773 236.072 456.561 233.069 456.72 232.279C456.877 231.489 461.301 228.803 463.04 229.276C464.779 229.749 466.676 232.753 465.728 234.649C464.779 236.545 460.828 240.655 459.723 240.812" fill="white"/>
<path d="M457.825 240.971L458.773 236.072C458.773 236.072 456.561 233.069 456.72 232.279C456.877 231.489 461.301 228.803 463.04 229.276C464.779 229.749 466.676 232.753 465.728 234.649C464.779 236.545 460.828 240.655 459.723 240.812" stroke="#1A2E35" stroke-width="1.33333" stroke-miterlimit="10" stroke-linecap="round" stroke-linejoin="round"/>
<path d="M458.312 231.334C458.312 231.334 461.007 234.187 461.324 235.297C461.64 236.406 461.007 237.515 461.007 237.515" stroke="#1A2E35" stroke-width="1.33333" stroke-miterlimit="10" stroke-linecap="round" stroke-linejoin="round"/>
<path d="M460.372 229.749C460.372 229.749 462.908 232.919 463.067 234.028C463.226 235.139 463.384 236.564 463.384 236.564" stroke="#1A2E35" stroke-width="1.33333" stroke-miterlimit="10" stroke-linecap="round" stroke-linejoin="round"/>
<path d="M461.957 229.273C461.957 229.273 465.128 232.76 465.128 233.712C465.128 234.663 464.81 235.296 464.81 235.296" stroke="#1A2E35" stroke-width="1.33333" stroke-miterlimit="10" stroke-linecap="round" stroke-linejoin="round"/>
<path d="M374.068 257.564C374.068 257.564 377.386 254.72 382.285 255.351C387.185 255.983 389.397 256.932 395.086 256.932C400.774 256.932 403.146 256.616 404.094 255.983C405.041 255.351 406.36 253.799 407.624 253.642C408.888 253.483 411.993 254.624 411.993 254.624C411.993 254.624 412.626 254.942 411.836 255.415C411.045 255.89 408.716 255.827 408.716 255.827C408.716 255.827 413.252 256.98 415.053 258.122C415.452 258.374 415.212 258.99 415.162 259.104C414.889 259.739 408.88 258.252 408.88 258.252C408.88 258.252 411.75 260.148 412.54 260.307C413.33 260.464 414.717 261.839 413.494 261.96C412.273 262.083 408.473 260.772 408.473 260.772L412.049 263.092C412.609 263.455 412.38 264.35 411.712 264.359C411.702 264.36 411.692 264.36 411.68 264.36C410.573 264.36 407.004 262.742 407.004 262.742C407.004 262.742 409.606 265.678 409.508 265.746C408.446 266.452 408.042 265.288 405.988 264.182C403.934 263.076 402.672 261.04 402.672 261.04C402.672 261.04 392.4 264.043 382.601 265.466C372.804 266.888 370.409 263.431 371.04 261.694C371.673 259.955 372.646 258.671 372.646 258.671" fill="white"/>
<path d="M374.068 257.564C374.068 257.564 377.386 254.72 382.285 255.351C387.185 255.983 389.397 256.932 395.086 256.932C400.774 256.932 403.146 256.616 404.094 255.983C405.041 255.351 406.36 253.799 407.624 253.642C408.888 253.483 411.993 254.624 411.993 254.624C411.993 254.624 412.626 254.942 411.836 255.415C411.045 255.89 408.716 255.827 408.716 255.827C408.716 255.827 413.252 256.98 415.053 258.122C415.452 258.374 415.212 258.99 415.162 259.104C414.889 259.739 408.88 258.252 408.88 258.252C408.88 258.252 411.75 260.148 412.54 260.307C413.33 260.464 414.717 261.839 413.494 261.96C412.273 262.083 408.473 260.772 408.473 260.772L412.049 263.092C412.609 263.455 412.38 264.35 411.712 264.359C411.702 264.36 411.692 264.36 411.68 264.36C410.573 264.36 407.004 262.742 407.004 262.742C407.004 262.742 409.606 265.678 409.508 265.746C408.446 266.452 408.042 265.288 405.988 264.182C403.934 263.076 402.672 261.04 402.672 261.04C402.672 261.04 392.4 264.043 382.601 265.466C372.804 266.888 370.409 263.431 371.04 261.694C371.673 259.955 372.646 258.671 372.646 258.671" stroke="#1A2E35" stroke-width="1.33333" stroke-miterlimit="10" stroke-linecap="round" stroke-linejoin="round"/>
<g opacity="0.300003">
<g opacity="0.300003">
<path opacity="0.300003" d="M321.281 411.099L340.148 451.436H554.195L534.677 392.883V377.919L527.804 356.991L321.281 411.099Z" fill="black"/>
</g>
</g>
<path d="M318.151 361.349V276.868H520.378V363.093" stroke="#1A2E35" stroke-width="5.33333" stroke-miterlimit="10" stroke-linecap="round" stroke-linejoin="round"/>
<path d="M384.441 289.236V360.522" stroke="#1A2E35" stroke-width="4" stroke-miterlimit="10" stroke-linecap="round" stroke-linejoin="round"/>
<path d="M452.259 289.236V360.522" stroke="#1A2E35" stroke-width="4" stroke-miterlimit="10" stroke-linecap="round" stroke-linejoin="round"/>
<path d="M319.022 289.07H517.762" stroke="#1A2E35" stroke-width="4" stroke-miterlimit="10" stroke-linecap="round" stroke-linejoin="round"/>
<path d="M313.792 414.521H523.864V362.22H313.792V414.521Z" fill="white" stroke="#1A2E35" stroke-width="1.33333" stroke-miterlimit="10" stroke-linecap="round" stroke-linejoin="round"/>
<path d="M499.857 414.521H523.864V362.22H499.857V414.521Z" fill="#ADADAD" stroke="#1A2E35" stroke-width="1.33333" stroke-miterlimit="10" stroke-linecap="round" stroke-linejoin="round"/>
<path d="M333.297 414.521H504.36V362.22H333.297V414.521Z" fill="white" stroke="#1A2E35" stroke-width="1.33333" stroke-miterlimit="10" stroke-linecap="round" stroke-linejoin="round"/>
<path d="M313.792 375.407H523.864V362.22H313.792V375.407Z" fill="#1A2E35" stroke="#1A2E35" stroke-width="1.33333" stroke-miterlimit="10" stroke-linecap="round" stroke-linejoin="round"/>
<path d="M310.593 371.808H527.063V356.991H310.593V371.808Z" fill="white" stroke="#1A2E35" stroke-width="1.33333" stroke-miterlimit="10" stroke-linecap="round" stroke-linejoin="round"/>
<path d="M496.545 371.808H527.062V356.991H496.545V371.808Z" fill="#ADADAD" stroke="#1A2E35" stroke-width="1.33333" stroke-miterlimit="10" stroke-linecap="round" stroke-linejoin="round"/>
<path d="M331.551 371.808H506.105V356.991H331.551V371.808Z" fill="white" stroke="#1A2E35" stroke-width="1.33333" stroke-miterlimit="10" stroke-linecap="round" stroke-linejoin="round"/>
<path d="M200.548 368.22H138.372V128.013H200.548V368.22Z" stroke="#1A2E35" stroke-width="1.33333" stroke-miterlimit="10" stroke-linecap="round" stroke-linejoin="round"/>
<path d="M196.257 361.297H142.661V135.465H196.257V361.297Z" stroke="#1A2E35" stroke-width="1.33333" stroke-miterlimit="10" stroke-linecap="round" stroke-linejoin="round"/>
<path d="M149.049 237.334V249.63" stroke="#1A2E35" stroke-width="1.33333" stroke-miterlimit="10" stroke-linecap="round" stroke-linejoin="round"/>
<path d="M149.049 135.589V229.334" stroke="#1A2E35" stroke-width="1.33333" stroke-miterlimit="10" stroke-linecap="round" stroke-linejoin="round"/>
<path d="M157.049 161.779V308.001" stroke="#1A2E35" stroke-width="1.33333" stroke-miterlimit="10" stroke-linecap="round" stroke-linejoin="round"/>
<path d="M157.049 135.589V153.779" stroke="#1A2E35" stroke-width="1.33333" stroke-miterlimit="10" stroke-linecap="round" stroke-linejoin="round"/>
<path d="M165.049 255.556V259.556" stroke="#1A2E35" stroke-width="1.33333" stroke-miterlimit="10" stroke-linecap="round" stroke-linejoin="round"/>
<path d="M165.049 135.589V247.557" stroke="#1A2E35" stroke-width="1.33333" stroke-miterlimit="10" stroke-linecap="round" stroke-linejoin="round"/>
<path d="M173.049 135.589V249.63" stroke="#1A2E35" stroke-width="1.33333" stroke-miterlimit="10" stroke-linecap="round" stroke-linejoin="round"/>
<path d="M181.049 135.589V249.63" stroke="#1A2E35" stroke-width="1.33333" stroke-miterlimit="10" stroke-linecap="round" stroke-linejoin="round"/>
<path d="M189.049 180.889V270.223" stroke="#1A2E35" stroke-width="1.33333" stroke-miterlimit="10" stroke-linecap="round" stroke-linejoin="round"/>
<path d="M189.049 135.589V172.446" stroke="#1A2E35" stroke-width="1.33333" stroke-miterlimit="10" stroke-linecap="round" stroke-linejoin="round"/>
<path d="M133.048 128.013H18.5586V368.017H133.048V128.013Z" stroke="#1A2E35" stroke-width="1.33333" stroke-miterlimit="10" stroke-linecap="round" stroke-linejoin="round"/>
<path d="M78.772 209.428H124.568V172.961H78.772V209.428Z" stroke="#1A2E35" stroke-width="1.33333" stroke-miterlimit="10" stroke-linecap="round" stroke-linejoin="round"/>
<path d="M78.772 250.983H124.568V214.516H78.772V250.983Z" stroke="#1A2E35" stroke-width="1.33333" stroke-miterlimit="10" stroke-linecap="round" stroke-linejoin="round"/>
<path d="M124.568 297.627H78.772V334.095H124.568V297.627Z" stroke="#1A2E35" stroke-width="1.33333" stroke-miterlimit="10" stroke-linecap="round" stroke-linejoin="round"/>
<path d="M78.772 292.537H124.568V256.071H78.772V292.537Z" stroke="#1A2E35" stroke-width="1.33333" stroke-miterlimit="10" stroke-linecap="round" stroke-linejoin="round"/>
<path d="M78.772 167.872H124.568V135.645H78.772V167.872Z" stroke="#1A2E35" stroke-width="1.33333" stroke-miterlimit="10" stroke-linecap="round" stroke-linejoin="round"/>
<path d="M72.8346 135.645H27.0386V167.872H72.8346V135.645Z" stroke="#1A2E35" stroke-width="1.33333" stroke-miterlimit="10" stroke-linecap="round" stroke-linejoin="round"/>
<path d="M72.8346 172.961H27.0386V209.428H72.8346V172.961Z" stroke="#1A2E35" stroke-width="1.33333" stroke-miterlimit="10" stroke-linecap="round" stroke-linejoin="round"/>
<path d="M78.772 368.017H124.568V339.183H78.772V368.017Z" stroke="#1A2E35" stroke-width="1.33333" stroke-miterlimit="10" stroke-linecap="round" stroke-linejoin="round"/>
<path d="M72.8346 339.183H27.0386V368.017H72.8346V339.183Z" stroke="#1A2E35" stroke-width="1.33333" stroke-miterlimit="10" stroke-linecap="round" stroke-linejoin="round"/>
<path d="M72.8346 214.516H27.0386V250.983H72.8346V214.516Z" stroke="#1A2E35" stroke-width="1.33333" stroke-miterlimit="10" stroke-linecap="round" stroke-linejoin="round"/>
<path d="M72.8346 297.627H27.0386V334.095H72.8346V297.627Z" stroke="#1A2E35" stroke-width="1.33333" stroke-miterlimit="10" stroke-linecap="round" stroke-linejoin="round"/>
<path d="M72.8346 256.072H27.0386V292.539H72.8346V256.072Z" stroke="#1A2E35" stroke-width="1.33333" stroke-miterlimit="10" stroke-linecap="round" stroke-linejoin="round"/>
<path d="M66.907 290.169C66.907 290.169 81.5216 276.901 82.5616 276.129C83.6016 275.357 84.9243 269.535 85.9643 268.763C87.0043 267.991 89.9456 266.883 91.0643 267.665C92.1843 268.447 90.1923 269.388 89.8403 270.724C89.4896 272.061 89.5683 273.616 88.9136 274.908C88.2603 276.199 70.079 294.805 70.079 294.805L66.907 290.169Z" fill="white"/>
<path d="M66.907 290.169C66.907 290.169 81.5216 276.901 82.5616 276.129C83.6016 275.357 84.9243 269.535 85.9643 268.763C87.0043 267.991 89.9456 266.883 91.0643 267.665C92.1843 268.447 90.1923 269.388 89.8403 270.724C89.4896 272.061 89.5683 273.616 88.9136 274.908C88.2603 276.199 70.079 294.805 70.079 294.805L66.907 290.169Z" stroke="#1A2E35" stroke-width="1.33333" stroke-miterlimit="10" stroke-linecap="round" stroke-linejoin="round"/>
<path d="M65.2109 251.959C65.2109 251.959 64.5016 260.847 62.4629 263.74C60.4229 266.635 55.8682 263.959 55.8682 263.959C55.8682 263.959 54.3056 268.956 55.7522 272.336C57.2002 275.715 61.4269 277.443 64.0029 279.498C66.5776 281.552 67.2282 280.171 69.2762 285.858C71.3256 291.544 71.0576 294.624 74.3989 300.074C77.7389 305.524 82.9802 307.752 82.9802 307.752C82.9802 307.752 75.9629 313.006 68.8416 317.1C61.7202 321.195 55.2482 320.362 55.2482 320.362C55.2482 320.362 54.0496 308.552 51.7082 302.054C49.3669 295.555 47.0162 285.848 45.4549 277.691C43.8922 269.535 46.6829 263.536 45.0189 259.934C43.3562 256.33 41.0456 252.754 41.3869 250.579C41.7282 248.404 62.1549 246.038 65.2109 251.959Z" fill="white"/>
<path d="M65.2109 251.959C65.2109 251.959 64.5016 260.847 62.4629 263.74C60.4229 266.635 55.8682 263.959 55.8682 263.959C55.8682 263.959 54.3056 268.956 55.7522 272.336C57.2002 275.715 61.4269 277.443 64.0029 279.498C66.5776 281.552 67.2282 280.171 69.2762 285.858C71.3256 291.544 71.0576 294.624 74.3989 300.074C77.7389 305.524 82.9802 307.752 82.9802 307.752C82.9802 307.752 75.9629 313.006 68.8416 317.1C61.7202 321.195 55.2482 320.362 55.2482 320.362C55.2482 320.362 54.0496 308.552 51.7082 302.054C49.3669 295.555 47.0162 285.848 45.4549 277.691C43.8922 269.535 46.6829 263.536 45.0189 259.934C43.3562 256.33 41.0456 252.754 41.3869 250.579C41.7282 248.404 62.1549 246.038 65.2109 251.959Z" stroke="#1A2E35" stroke-width="1.33333" stroke-miterlimit="10" stroke-linecap="round" stroke-linejoin="round"/>
<path d="M105.386 319.094C105.386 319.094 115.745 319.796 122.629 323.746C129.514 327.695 155.027 358.078 155.027 358.078L152.951 360.636C152.951 360.636 123.629 336.068 116.277 334.018C108.926 331.967 82.3647 331.972 82.3647 331.972C82.3647 331.972 90.8847 321.767 105.386 319.094Z" fill="#34A853"/>
<path d="M105.386 319.094C105.386 319.094 115.745 319.796 122.629 323.746C129.514 327.695 155.027 358.078 155.027 358.078L152.951 360.636C152.951 360.636 123.629 336.068 116.277 334.018C108.926 331.967 82.3647 331.972 82.3647 331.972C82.3647 331.972 90.8847 321.767 105.386 319.094Z" stroke="#1A2E35" stroke-width="1.33333" stroke-miterlimit="10" stroke-linecap="round" stroke-linejoin="round"/>
<path d="M71.6426 305.329C71.6426 305.329 76.9666 311.672 79.7492 312.036C82.5319 312.401 117.779 290.576 121.841 303.628C125.904 316.679 132.308 360.532 132.308 360.532L127.181 362.413C127.181 362.413 114.24 319.825 111.915 314.28C109.588 308.736 97.8626 328.341 84.4479 332.681C71.0359 337.021 64.7746 334.883 61.7506 331.451C53.3492 321.919 57.2439 308.887 71.6426 305.329Z" fill="#34A853"/>
<path d="M71.6426 305.329C71.6426 305.329 76.9666 311.672 79.7492 312.036C82.5319 312.401 117.779 290.576 121.841 303.628C125.904 316.679 132.308 360.532 132.308 360.532L127.181 362.413C127.181 362.413 114.24 319.825 111.915 314.28C109.588 308.736 97.8626 328.341 84.4479 332.681C71.0359 337.021 64.7746 334.883 61.7506 331.451C53.3492 321.919 57.2439 308.887 71.6426 305.329Z" stroke="#1A2E35" stroke-width="1.33333" stroke-miterlimit="10" stroke-linecap="round" stroke-linejoin="round"/>
<path d="M132.307 360.533C132.307 360.533 136.662 361.697 139.467 361.614C142.273 361.529 145.927 360.987 145.953 361.85C145.978 362.714 141.493 364.359 137.439 365.994C133.385 367.626 131.273 369.202 129.958 368.594C128.643 367.985 127.181 362.414 127.181 362.414L132.307 360.533Z" fill="white"/>
<path d="M132.307 360.533C132.307 360.533 136.662 361.697 139.467 361.614C142.273 361.529 145.927 360.987 145.953 361.85C145.978 362.714 141.493 364.359 137.439 365.994C133.385 367.626 131.273 369.202 129.958 368.594C128.643 367.985 127.181 362.414 127.181 362.414L132.307 360.533Z" stroke="#1A2E35" stroke-width="1.33333" stroke-miterlimit="10" stroke-linecap="round" stroke-linejoin="round"/>
<path d="M145.648 361.544C145.823 361.619 145.948 361.711 145.954 361.85C145.979 362.714 141.492 364.359 137.439 365.994C133.384 367.627 131.272 369.202 129.958 368.594C129.776 368.51 129.592 368.316 129.408 368.07L145.648 361.544Z" fill="white"/>
<path d="M145.648 361.544C145.823 361.619 145.948 361.711 145.954 361.85C145.979 362.714 141.492 364.359 137.439 365.994C133.384 367.627 131.272 369.202 129.958 368.594C129.776 368.51 129.592 368.316 129.408 368.07L145.648 361.544Z" stroke="#1A2E35" stroke-width="1.33333" stroke-miterlimit="10" stroke-linecap="round" stroke-linejoin="round"/>
<path d="M155.028 358.078C155.028 358.078 159.477 357.354 160.817 357.095C162.157 356.834 163.192 353.922 165.203 353.533C167.213 353.142 165.6 358.809 165.376 360.522C165.152 362.234 156.932 366.818 156.048 366.921C155.164 367.022 152.952 360.637 152.952 360.637L155.028 358.078Z" fill="white"/>
<path d="M155.028 358.078C155.028 358.078 159.477 357.354 160.817 357.095C162.157 356.834 163.192 353.922 165.203 353.533C167.213 353.142 165.6 358.809 165.376 360.522C165.152 362.234 156.932 366.818 156.048 366.921C155.164 367.022 152.952 360.637 152.952 360.637L155.028 358.078Z" stroke="#1A2E35" stroke-width="1.33333" stroke-miterlimit="10" stroke-linecap="round" stroke-linejoin="round"/>
<path d="M155.203 366C157.36 364.751 162.992 361.396 163.691 360.084C164.558 358.456 165.434 355.085 165.388 353.775C165.386 353.705 165.419 353.609 165.43 353.528C167.07 353.632 165.591 358.881 165.376 360.523C165.151 362.235 156.931 366.817 156.047 366.92C155.83 366.945 155.53 366.571 155.203 366Z" fill="white"/>
<path d="M155.203 366C157.36 364.751 162.992 361.396 163.691 360.084C164.558 358.456 165.434 355.085 165.388 353.775C165.386 353.705 165.419 353.609 165.43 353.528C167.07 353.632 165.591 358.881 165.376 360.523C165.151 362.235 156.931 366.817 156.047 366.92C155.83 366.945 155.53 366.571 155.203 366Z" stroke="#1A2E35" stroke-width="1.33333" stroke-miterlimit="10" stroke-linecap="round" stroke-linejoin="round"/>
<path d="M82.9805 307.753C82.9805 307.753 75.9631 313.005 68.8418 317.101C61.7205 321.195 55.2485 320.362 55.2485 320.362C55.2485 320.362 54.0498 308.553 51.7085 302.054C49.3671 295.555 45.2085 286.847 43.6471 278.691C43.2578 276.659 43.9298 274.198 44.6738 272.102C45.7791 271.634 47.0618 271.337 48.5151 271.539C53.1058 272.181 56.4631 278.314 59.3218 277.971C60.0205 277.889 60.6418 277.637 61.1871 277.309C62.3258 278.198 63.3325 278.962 64.0031 279.498C66.5778 281.553 67.2285 280.17 69.2765 285.858C71.3258 291.545 71.0578 294.623 74.3978 300.074C77.7391 305.523 82.9805 307.753 82.9805 307.753Z" fill="#DF382B"/>
<path d="M82.9805 307.753C82.9805 307.753 75.9631 313.005 68.8418 317.101C61.7205 321.195 55.2485 320.362 55.2485 320.362C55.2485 320.362 54.0498 308.553 51.7085 302.054C49.3671 295.555 45.2085 286.847 43.6471 278.691C43.2578 276.659 43.9298 274.198 44.6738 272.102C45.7791 271.634 47.0618 271.337 48.5151 271.539C53.1058 272.181 56.4631 278.314 59.3218 277.971C60.0205 277.889 60.6418 277.637 61.1871 277.309C62.3258 278.198 63.3325 278.962 64.0031 279.498C66.5778 281.553 67.2285 280.17 69.2765 285.858C71.3258 291.545 71.0578 294.623 74.3978 300.074C77.7391 305.523 82.9805 307.753 82.9805 307.753Z" stroke="#1A2E35" stroke-width="1.33333" stroke-miterlimit="10" stroke-linecap="round" stroke-linejoin="round"/>
<path d="M31.1758 270.5C33.9371 266.063 37.9478 260.64 39.6225 257.672C41.3345 254.641 40.2011 253.221 40.7758 251.469C41.3505 249.716 54.8398 246.776 58.9105 251.141C58.9105 251.141 58.5625 252.128 57.9705 253.573C58.6198 253.385 59.0198 253.293 59.0198 253.293C59.0198 253.293 52.3585 270.979 48.5158 271.54C45.6145 271.964 43.8851 269.032 43.2118 267.568C42.6451 268.189 42.5358 269.133 43.1705 270.713C44.4785 273.973 41.7345 282.015 45.5878 288.885C49.4398 295.757 52.0571 302.387 45.2825 304.597C38.5078 306.809 28.9278 303.148 26.9438 294.456C24.9585 285.763 28.4145 274.936 31.1758 270.5Z" fill="#FF1778"/>
<path d="M31.1758 270.5C33.9371 266.063 37.9478 260.64 39.6225 257.672C41.3345 254.641 40.2011 253.221 40.7758 251.469C41.3505 249.716 54.8398 246.776 58.9105 251.141C58.9105 251.141 58.5625 252.128 57.9705 253.573C58.6198 253.385 59.0198 253.293 59.0198 253.293C59.0198 253.293 52.3585 270.979 48.5158 271.54C45.6145 271.964 43.8851 269.032 43.2118 267.568C42.6451 268.189 42.5358 269.133 43.1705 270.713C44.4785 273.973 41.7345 282.015 45.5878 288.885C49.4398 295.757 52.0571 302.387 45.2825 304.597C38.5078 306.809 28.9278 303.148 26.9438 294.456C24.9585 285.763 28.4145 274.936 31.1758 270.5Z" stroke="#1A2E35" stroke-width="1.33333" stroke-miterlimit="10" stroke-linecap="round" stroke-linejoin="round"/>
<path d="M55.1601 237.507C55.1601 237.507 58.8148 238.211 61.8881 239.377C64.9628 240.545 65.7108 241.819 65.8015 243.975C65.8908 246.132 65.2108 251.959 65.2108 251.959C65.2108 251.959 60.0788 253.255 53.1775 253.543C46.2761 253.832 40.8215 252.547 40.8215 252.547C40.8215 252.547 38.9495 242.507 40.4135 241.364C41.8788 240.223 47.4495 239.125 50.2268 238.361C53.0028 237.596 53.1735 236.509 55.1601 237.507Z" fill="#FFBE21"/>
<path d="M55.1601 237.507C55.1601 237.507 58.8148 238.211 61.8881 239.377C64.9628 240.545 65.7108 241.819 65.8015 243.975C65.8908 246.132 65.2108 251.959 65.2108 251.959C65.2108 251.959 60.0788 253.255 53.1775 253.543C46.2761 253.832 40.8215 252.547 40.8215 252.547C40.8215 252.547 38.9495 242.507 40.4135 241.364C41.8788 240.223 47.4495 239.125 50.2268 238.361C53.0028 237.596 53.1735 236.509 55.1601 237.507Z" stroke="#1A2E35" stroke-width="1.33333" stroke-miterlimit="10" stroke-linecap="round" stroke-linejoin="round"/>
<path d="M50.5806 253.435C50.5806 253.435 47.5166 257.668 41.118 259.664C34.7206 261.66 29.1926 258.651 28.9326 257.582C28.6713 256.512 40.8206 252.547 40.8206 252.547L50.5806 253.435Z" fill="#FFBE21"/>
<path d="M50.5806 253.435C50.5806 253.435 47.5166 257.668 41.118 259.664C34.7206 261.66 29.1926 258.651 28.9326 257.582C28.6713 256.512 40.8206 252.547 40.8206 252.547L50.5806 253.435Z" stroke="#1A2E35" stroke-width="1.33333" stroke-miterlimit="10" stroke-linecap="round" stroke-linejoin="round"/>
<path d="M97.877 261.416C97.5677 261.252 96.4957 261.948 95.4957 262.964L89.789 268.763C88.7903 269.777 88.1663 270.773 88.4037 270.973C88.641 271.173 89.6583 270.513 90.665 269.504L96.6103 263.547C97.617 262.539 98.1877 261.58 97.877 261.416Z" fill="white"/>
<path d="M97.877 261.416C97.5677 261.252 96.4957 261.948 95.4957 262.964L89.789 268.763C88.7903 269.777 88.1663 270.773 88.4037 270.973C88.641 271.173 89.6583 270.513 90.665 269.504L96.6103 263.547C97.617 262.539 98.1877 261.58 97.877 261.416Z" stroke="#1A2E35" stroke-width="1.33333" stroke-miterlimit="10" stroke-linecap="round" stroke-linejoin="round"/>
<path d="M45.998 274.742C45.998 274.742 49.0166 272.963 53.2046 276.274C55.882 278.391 57.8673 285.543 60.038 290.054C61.7366 293.586 63.1686 297.331 64.5113 296.603C65.8526 295.878 85.274 277.609 86.1006 276.189C86.9286 274.769 87.514 269.763 88.51 269.293C89.5046 268.823 91.0646 267.665 91.0646 267.665C91.0646 267.665 94.6153 265.566 95.0006 266.086C95.3873 266.606 96.0406 265.314 95.3873 266.606C94.7326 267.898 92.782 269.615 92.782 269.615C92.782 269.615 93.7113 273.766 92.454 274.967C91.1953 276.17 89.1153 277.714 89.1153 277.714C89.1153 277.714 73.8793 298.511 70.5806 302.035C67.282 305.559 64.0353 308.394 59.902 306.086C55.7686 303.778 44.1646 283.662 43.6593 279.714C43.1553 275.766 44.3006 275.123 45.998 274.742Z" fill="white"/>
<path d="M45.998 274.742C45.998 274.742 49.0166 272.963 53.2046 276.274C55.882 278.391 57.8673 285.543 60.038 290.054C61.7366 293.586 63.1686 297.331 64.5113 296.603C65.8526 295.878 85.274 277.609 86.1006 276.189C86.9286 274.769 87.514 269.763 88.51 269.293C89.5046 268.823 91.0646 267.665 91.0646 267.665C91.0646 267.665 94.6153 265.566 95.0006 266.086C95.3873 266.606 96.0406 265.314 95.3873 266.606C94.7326 267.898 92.782 269.615 92.782 269.615C92.782 269.615 93.7113 273.766 92.454 274.967C91.1953 276.17 89.1153 277.714 89.1153 277.714C89.1153 277.714 73.8793 298.511 70.5806 302.035C67.282 305.559 64.0353 308.394 59.902 306.086C55.7686 303.778 44.1646 283.662 43.6593 279.714C43.1553 275.766 44.3006 275.123 45.998 274.742Z" stroke="#1A2E35" stroke-width="1.33333" stroke-miterlimit="10" stroke-linecap="round" stroke-linejoin="round"/>
<path d="M62.4121 336.349C62.7027 336.349 62.9961 336.269 63.2587 336.1C63.9841 335.63 64.1934 334.662 63.7241 333.936C51.2387 314.604 42.9654 267.246 42.8841 266.77C42.7361 265.92 41.9267 265.349 41.0761 265.494C40.2241 265.641 39.6534 266.45 39.8001 267.301C40.1401 269.272 48.2641 315.765 61.0961 335.634C61.3947 336.098 61.8987 336.349 62.4121 336.349Z" fill="white"/>
<path d="M62.4121 336.349C62.7027 336.349 62.9961 336.269 63.2587 336.1C63.9841 335.63 64.1934 334.662 63.7241 333.936C51.2387 314.604 42.9654 267.246 42.8841 266.77C42.7361 265.92 41.9267 265.349 41.0761 265.494C40.2241 265.641 39.6534 266.45 39.8001 267.301C40.1401 269.272 48.2641 315.765 61.0961 335.634C61.3947 336.098 61.8987 336.349 62.4121 336.349Z" stroke="#1A2E35" stroke-width="1.33333" stroke-miterlimit="10" stroke-linecap="round" stroke-linejoin="round"/>
<path d="M65.4889 338.621C72.2449 338.621 78.7956 336.865 88.0396 334.224C99.1556 331.046 110.05 332.197 110.158 332.209C111.016 332.308 111.79 331.685 111.885 330.826C111.98 329.969 111.362 329.196 110.504 329.1C110.036 329.048 98.9089 327.865 87.1796 331.216C75.1636 334.649 69.1276 336.072 61.7476 335.296C60.8876 335.198 60.1182 335.828 60.0276 336.688C59.9369 337.546 60.5609 338.316 61.4196 338.408C62.7982 338.552 64.1489 338.621 65.4889 338.621Z" fill="white"/>
<path d="M65.4889 338.621C72.2449 338.621 78.7956 336.865 88.0396 334.224C99.1556 331.046 110.05 332.197 110.158 332.209C111.016 332.308 111.79 331.685 111.885 330.826C111.98 329.969 111.362 329.196 110.504 329.1C110.036 329.048 98.9089 327.865 87.1796 331.216C75.1636 334.649 69.1276 336.072 61.7476 335.296C60.8876 335.198 60.1182 335.828 60.0276 336.688C59.9369 337.546 60.5609 338.316 61.4196 338.408C62.7982 338.552 64.1489 338.621 65.4889 338.621Z" stroke="#1A2E35" stroke-width="1.33333" stroke-miterlimit="10" stroke-linecap="round" stroke-linejoin="round"/>
<path d="M43.819 373.116C44.3483 373.116 44.8656 372.848 45.159 372.361L83.299 309.193L112.216 371.385C112.582 372.169 113.512 372.509 114.295 372.144C115.078 371.78 115.418 370.851 115.054 370.067L84.8976 305.208C84.6536 304.685 84.1403 304.337 83.563 304.307C82.9883 304.268 82.4376 304.565 82.139 305.06L42.4816 370.744C42.035 371.483 42.2723 372.444 43.0123 372.892C43.2643 373.043 43.543 373.116 43.819 373.116Z" fill="white"/>
<path d="M43.819 373.116C44.3483 373.116 44.8656 372.848 45.159 372.361L83.299 309.193L112.216 371.385C112.582 372.169 113.512 372.509 114.295 372.144C115.078 371.78 115.418 370.851 115.054 370.067L84.8976 305.208C84.6536 304.685 84.1403 304.337 83.563 304.307C82.9883 304.268 82.4376 304.565 82.139 305.06L42.4816 370.744C42.035 371.483 42.2723 372.444 43.0123 372.892C43.2643 373.043 43.543 373.116 43.819 373.116Z" stroke="#1A2E35" stroke-width="1.33333" stroke-miterlimit="10" stroke-linecap="round" stroke-linejoin="round"/>
<path d="M51.6692 311.977C66.1826 311.977 79.3492 308.158 85.6772 306.322C87.2559 305.865 88.8879 305.391 89.2826 305.366C90.1479 305.366 92.9346 307.139 94.8812 308.731C95.5506 309.278 96.5359 309.179 97.0826 308.51C97.6292 307.842 97.5306 306.857 96.8626 306.31C95.6946 305.355 91.6972 302.238 89.2626 302.238C88.5559 302.238 87.4532 302.55 84.8066 303.318C78.6159 305.113 65.7386 308.847 51.6692 308.847C50.8052 308.847 50.1052 309.549 50.1052 310.411C50.1052 311.277 50.8052 311.977 51.6692 311.977Z" fill="white"/>
<path d="M51.6692 311.977C66.1826 311.977 79.3492 308.158 85.6772 306.322C87.2559 305.865 88.8879 305.391 89.2826 305.366C90.1479 305.366 92.9346 307.139 94.8812 308.731C95.5506 309.278 96.5359 309.179 97.0826 308.51C97.6292 307.842 97.5306 306.857 96.8626 306.31C95.6946 305.355 91.6972 302.238 89.2626 302.238C88.5559 302.238 87.4532 302.55 84.8066 303.318C78.6159 305.113 65.7386 308.847 51.6692 308.847C50.8052 308.847 50.1052 309.549 50.1052 310.411C50.1052 311.277 50.8052 311.977 51.6692 311.977Z" stroke="#1A2E35" stroke-width="1.33333" stroke-miterlimit="10" stroke-linecap="round" stroke-linejoin="round"/>
<g opacity="0.300003">
<g opacity="0.300003">
<path opacity="0.300003" d="M10.946 411.099L29.8127 451.436H243.861L224.342 392.883V377.919L217.469 356.991L10.946 411.099Z" fill="black"/>
</g>
</g>
<path d="M8.55737 361.349V276.868H210.784V363.093" stroke="#1A2E35" stroke-width="5.33333" stroke-miterlimit="10" stroke-linecap="round" stroke-linejoin="round"/>
<path d="M74.8481 289.236V360.522" stroke="#1A2E35" stroke-width="4" stroke-miterlimit="10" stroke-linecap="round" stroke-linejoin="round"/>
<path d="M142.666 289.236V360.522" stroke="#1A2E35" stroke-width="4" stroke-miterlimit="10" stroke-linecap="round" stroke-linejoin="round"/>
<path d="M9.42896 289.07H208.169" stroke="#1A2E35" stroke-width="4" stroke-miterlimit="10" stroke-linecap="round" stroke-linejoin="round"/>
<path d="M4.19873 414.521H214.271V362.22H4.19873V414.521Z" fill="white" stroke="#1A2E35" stroke-width="1.33333" stroke-miterlimit="10" stroke-linecap="round" stroke-linejoin="round"/>
<path d="M190.263 414.521H214.271V362.22H190.263V414.521Z" fill="#ADADAD" stroke="#1A2E35" stroke-width="1.33333" stroke-miterlimit="10" stroke-linecap="round" stroke-linejoin="round"/>
<path d="M23.7026 414.521H194.765V362.22H23.7026V414.521Z" fill="white" stroke="#1A2E35" stroke-width="1.33333" stroke-miterlimit="10" stroke-linecap="round" stroke-linejoin="round"/>
<path d="M4.19873 375.407H214.271V362.22H4.19873V375.407Z" fill="#1A2E35" stroke="#1A2E35" stroke-width="1.33333" stroke-miterlimit="10" stroke-linecap="round" stroke-linejoin="round"/>
<path d="M1 371.808H217.468V356.991H1V371.808Z" fill="white" stroke="#1A2E35" stroke-width="1.33333" stroke-miterlimit="10" stroke-linecap="round" stroke-linejoin="round"/>
<path d="M186.952 371.808H217.469V356.991H186.952V371.808Z" fill="#ADADAD" stroke="#1A2E35" stroke-width="1.33333" stroke-miterlimit="10" stroke-linecap="round" stroke-linejoin="round"/>
<path d="M21.9573 371.808H196.513V356.991H21.9573V371.808Z" fill="white" stroke="#1A2E35" stroke-width="1.33333" stroke-miterlimit="10" stroke-linecap="round" stroke-linejoin="round"/>
</svg>
